<?xml version="1.0" encoding="UTF-8" standalone="no"?>
<!-- Created with Inkscape (http://www.inkscape.org/) -->

<svg
   width="104.13279mm"
   height="156.59061mm"
   viewBox="0 0 104.13279 156.59061"
   version="1.1"
   id="svg5"
   inkscape:version="1.1.2 (b8e25be833, 2022-02-05)"
   sodipodi:docname="pip-boy.svg"
   xmlns:inkscape="http://www.inkscape.org/namespaces/inkscape"
   xmlns:sodipodi="http://sodipodi.sourceforge.net/DTD/sodipodi-0.dtd"
   xmlns="http://www.w3.org/2000/svg"
   xmlns:svg="http://www.w3.org/2000/svg">
  <sodipodi:namedview
     id="namedview7"
     pagecolor="#ffffff"
     bordercolor="#666666"
     borderopacity="1.0"
     inkscape:pageshadow="2"
     inkscape:pageopacity="0.0"
     inkscape:pagecheckerboard="0"
     inkscape:document-units="mm"
     showgrid="false"
     inkscape:zoom="0.74029882"
     inkscape:cx="284.34464"
     inkscape:cy="263.40715"
     inkscape:window-width="1920"
     inkscape:window-height="1017"
     inkscape:window-x="1912"
     inkscape:window-y="-8"
     inkscape:window-maximized="1"
     inkscape:current-layer="layer1" />
  <defs
     id="defs2" />
  <g
     inkscape:label="Calque 1"
     inkscape:groupmode="layer"
     id="layer1"
     transform="translate(-114.63246,-103.97906)">
    <g
       id="g978">
      <path
         style="fill:#ffffff;stroke-width:0.260984"
         d="m 114.63246,182.2744 v -78.29534 h 52.06641 52.06638 v 78.29534 78.29527 h -52.06638 -52.06641 z m 93.72679,76.88022 c 3.11088,-1.31184 3.68912,-4.91623 1.46856,-9.15435 -0.31435,-0.59998 -0.32024,-0.86868 -0.0364,-1.66294 0.19851,-0.55596 0.34323,-2.17498 0.34995,-3.91871 0.0154,-3.75577 -0.67642,-7.21908 -3.11837,-15.63151 -3.47542,-11.97283 -6.7878,-21.20363 -8.47103,-23.6068 -0.22256,-0.31756 -0.40433,-0.63937 -0.40421,-0.71508 1.3e-4,-0.0758 1.79115,-0.14087 3.98002,-0.14488 2.18888,-0.003 4.27339,-0.0885 4.63225,-0.18772 0.93122,-0.2577 2.32149,-2.43437 2.57367,-4.0295 0.24752,-1.5659 -0.12176,-3.2741 -0.96304,-4.45568 l -0.58293,-0.81865 1.14845,-1.51421 c 3.80429,-5.01611 7.10866,-11.63006 8.89684,-17.8079 0.5849,-2.02072 0.52624,-2.49879 -0.54347,-4.42951 -2.09687,-3.78462 -4.13883,-6.45113 -7.51389,-9.812 -4.87761,-4.85712 -9.70646,-8.18106 -17.67683,-12.16793 -1.96456,-0.98269 -3.63456,-1.88799 -3.71104,-2.01178 -0.0764,-0.12361 0.21732,-0.56598 0.65284,-0.9827 0.43559,-0.41669 1.01627,-1.12003 1.29046,-1.56298 0.31759,-0.51308 0.85551,-0.91229 1.48237,-1.10014 1.46957,-0.44037 3.39623,-1.75625 3.9848,-2.7216 0.6987,-1.14601 0.68644,-3.09023 -0.0277,-4.56782 -0.49646,-1.02557 -0.51169,-1.18284 -0.1532,-1.58307 0.5584,-0.62341 2.12258,-3.844 2.62416,-5.40306 0.59193,-1.83994 0.99321,-4.99237 0.81298,-6.38689 -0.57846,-4.47575 -1.77749,-6.72905 -4.74855,-8.92388 -0.77432,-0.57202 -2.22306,-2.07211 -3.21945,-3.33356 l -1.81161,-2.29347 -1.6864,-0.13532 c -1.50679,-0.12083 -1.81319,-0.24691 -2.87708,-1.18346 -2.9996,-2.64037 -4.99869,-2.50915 -7.70993,0.50611 l -1.18192,1.31447 -1.08322,-0.2916 c -1.43946,-0.38763 -2.49339,-0.0123 -5.60998,1.99523 -1.33447,0.8598 -2.93102,1.84432 -3.54792,2.18786 -1.10535,0.61552 -1.12714,0.61721 -1.50265,0.11529 -0.27434,-0.36685 -0.33473,-0.85851 -0.21546,-1.75718 0.23272,-1.75356 -0.35092,-1.94209 -1.77703,-0.57405 -2.01197,1.93001 -2.8412,4.99235 -2.00297,7.39687 0.17693,0.50729 0.19943,0.91754 0.0561,1.01766 -0.13193,0.0922 -0.50023,0.50651 -0.81825,0.92062 -1.05033,1.36764 -0.63983,3.46478 1.03504,5.2878 0.51274,0.55808 0.51228,0.56702 -0.12947,2.60982 -1.07844,3.4334 -1.3324,5.04277 -1.33253,8.44396 -1.8e-4,5.00128 1.00585,8.03911 3.96538,11.97354 0.90465,1.20267 1.60564,2.22584 1.5578,2.27368 -0.0478,0.0478 -1.90208,0.28082 -4.12049,0.51737 -6.51161,0.69473 -14.04984,0.299 -20.73642,-1.08883 -2.05284,-0.42606 -2.10978,-0.45936 -3.3928,-1.98393 -0.7177,-0.8528 -2.45,-2.61213 -3.84951,-3.90958 -2.91139,-2.69903 -2.87729,-2.595 -2.02082,-6.16764 0.64883,-2.70646 0.65749,-4.1069 0.0327,-5.27248 -0.66779,-1.24566 -2.49728,-2.18397 -3.78663,-1.94209 -1.3001,0.24382 -2.86687,1.43854 -3.65876,2.78981 -1.56991,2.67887 -1.90979,7.21238 -0.71489,9.53563 0.64775,1.25938 0.6755,1.23219 -1.51995,1.49069 -3.25141,0.38288 -5.4913,2.08682 -5.4913,4.17736 0,1.21709 0.33787,2.22091 1.08174,3.21381 0.43216,0.57683 0.42476,0.63801 -0.18526,1.53708 -0.88831,1.30898 -0.83998,2.59065 0.14919,3.95614 0.43152,0.59572 0.91951,1.08309 1.08439,1.08309 0.18248,0 0.13779,0.17909 -0.11405,0.4572 -1.32637,1.4656 -1.06562,3.07861 0.82657,5.11324 2.30361,2.47709 6.19824,3.51758 16.33977,4.36536 6.35557,0.5313 14.35224,-0.49221 19.41843,-2.48541 0.91933,-0.3617 1.92252,-0.8221 2.22933,-1.02311 l 0.5578,-0.36549 -0.10603,7.08224 c -0.11375,7.57784 -0.17201,6.83601 1.84496,23.3938 0.9782,8.03011 0.7258,16.39186 -1.51804,50.29151 l -0.15905,2.40089 -1.34677,0.44096 c -2.32772,0.76208 -4.68619,2.02522 -5.84284,3.12925 -1.39295,1.32963 -1.53597,2.5695 -0.41613,3.60787 2.1279,1.97311 9.67566,1.43552 15.76476,-1.12286 l 1.78408,-0.7496 0.40803,0.62273 c 0.46805,0.71433 1.61967,0.82438 3.3143,0.31663 1.6929,-0.50719 3.07786,-2.56805 3.08286,-4.5874 7.7e-4,-0.35269 0.16121,-0.58721 0.40112,-0.58721 0.21979,0 0.45211,-0.14673 0.5162,-0.32622 0.0641,-0.1794 0.29499,-2.57616 0.5132,-5.32608 0.60876,-7.67316 1.82083,-14.12494 3.83444,-20.41107 l 0.79072,-2.46852 1.31776,2.06493 c 5.15026,8.07043 9.1383,16.00834 10.62018,21.13869 0.5833,2.0194 1.98648,4.37973 3.96442,6.66863 0.69905,0.80897 1.27757,1.68979 1.28562,1.95738 0.0481,1.6058 1.98614,4.60959 3.76264,5.83186 2.45659,1.69019 5.94554,2.32716 8.00042,1.46061 z M 195.16384,188.9295 c 0.32113,-4.5739 2.25632,-14.22367 2.85241,-14.22367 0.16368,0 0.87663,0.16399 1.5845,0.36432 0.70789,0.20036 1.62435,0.44107 2.0366,0.53491 l 0.74954,0.17077 -1.03643,0.88714 c -1.24653,1.06697 -3.04544,3.76002 -3.74967,5.6134 -0.28174,0.74134 -0.6435,2.60033 -0.80397,4.13106 -0.2016,1.92154 -0.43053,2.94477 -0.73986,3.30515 -0.24629,0.28698 -0.5853,0.75684 -0.75305,1.04391 -0.24105,0.41256 -0.27034,0.0308 -0.13995,-1.82687 z m -27.93016,-46.45359 c -0.85416,-0.35113 -1.90732,-0.99269 -2.34029,-1.42569 l -0.78727,-0.78727 1.42686,0.5579 c 2.778,1.08612 9.08672,0.63623 12.05159,-0.85942 2.13903,-1.07909 2.43625,-0.22009 0.40186,1.16136 -3.06449,2.08105 -7.59507,2.65119 -10.75275,1.35312 z"
         id="path888" />
      <path
         style="fill:#e3ddbb;stroke-width:0.260984"
         d="m 199.04451,256.58968 -0.76655,-0.84821 0.84821,0.76656 c 0.79062,0.71449 0.96815,0.92986 0.76652,0.92986 -0.045,0 -0.42659,-0.3817 -0.84818,-0.84821 z m -3.40119,-6.26362 -0.49718,-0.58722 0.58722,0.49718 c 0.55183,0.46721 0.70604,0.67725 0.49717,0.67725 -0.0496,0 -0.31376,-0.26417 -0.58721,-0.58721 z m -38.97177,-4.78471 c 0.0123,-0.30393 0.0743,-0.36589 0.15783,-0.15782 0.0755,0.18834 0.066,0.41351 -0.0216,0.50023 -0.0866,0.0866 -0.14827,-0.0675 -0.13717,-0.34253 z m 2.0879,-35.49388 c 0.0123,-0.30393 0.0743,-0.36586 0.15782,-0.15752 0.0755,0.18834 0.066,0.41349 -0.0216,0.50023 -0.0866,0.0866 -0.14826,-0.0675 -0.13717,-0.34256 z m 37.84271,-22.70564 c 0.0123,-0.30393 0.0743,-0.36586 0.15782,-0.15782 0.0755,0.18834 0.066,0.41348 -0.0216,0.50022 -0.0866,0.0866 -0.14827,-0.0675 -0.13718,-0.34255 z m -40.19157,-7.82953 c 0.0123,-0.30393 0.0743,-0.36586 0.15782,-0.15782 0.0755,0.18834 0.066,0.41348 -0.0216,0.50022 -0.0866,0.0866 -0.14827,-0.0675 -0.13718,-0.34255 z M 136.3644,168.26136 c 0.254,-0.0663 0.60624,-0.062 0.78295,0.009 0.17663,0.0715 -0.0311,0.12577 -0.46169,0.12022 -0.43063,-0.006 -0.57519,-0.0638 -0.32126,-0.13008 z m 20.06678,-1.12407 c 0,-0.35886 0.0592,-0.50565 0.13162,-0.32622 0.0724,0.17941 0.0724,0.47301 0,0.65244 -0.0724,0.17941 -0.13162,0.0327 -0.13162,-0.32622 z m -34.23015,-4.83377 c -2.0555,-0.46152 -4.25557,-1.27779 -4.37008,-1.62137 -0.16769,-0.50306 0.87197,-1.40598 1.8907,-1.64204 1.50324,-0.34829 4.46734,-0.29222 6.13315,0.1159 1.87856,0.46043 3.85376,1.25834 3.92851,1.58702 0.0327,0.14365 -0.57365,0.58047 -1.34736,0.97093 -1.77409,0.8954 -3.95428,1.1015 -6.23492,0.5894 z m -5.98204,-1.58209 c 0.0123,-0.30394 0.0743,-0.36587 0.15782,-0.15752 0.0755,0.18834 0.0663,0.41349 -0.0216,0.50023 -0.0866,0.0866 -0.14826,-0.0675 -0.13717,-0.34256 z m 0.34607,-3.04483 -0.49718,-0.58721 0.58722,0.49717 c 0.55183,0.46722 0.70601,0.67726 0.49717,0.67726 -0.0496,0 -0.31376,-0.26417 -0.58721,-0.58722 z m 12.03007,-0.64797 c -2.67763,-0.93766 -5.08821,-1.05403 -7.04657,-0.34012 -2.54559,0.92798 -2.79681,0.93184 -3.73303,0.0573 -0.98482,-0.92 -1.1444,-2.29611 -0.34961,-3.01538 0.77105,-0.69779 3.29435,-1.46952 4.79383,-1.46616 3.68681,0.009 8.81476,2.75704 8.81476,4.725 0,0.88541 -0.0607,0.88637 -2.47938,0.0395 z m 42.40998,-4.43472 c -2.96705,-0.84355 -6.98628,-4.64753 -8.86035,-8.3858 -2.34411,-4.67589 -2.44318,-10.38374 -0.2916,-16.80423 0.44521,-1.32856 1.13239,-3.05704 1.52707,-3.84107 0.71356,-1.41742 1.02348,-1.70594 4.49637,-4.18565 0.90462,-0.64594 2.17386,-1.68773 2.82048,-2.31505 l 1.17569,-1.14061 1.15612,0.56169 c 1.59057,0.77275 3.09575,0.93412 4.42141,0.474 l 1.09502,-0.38005 0.44055,1.07376 c 0.96368,2.34877 1.14817,3.23283 0.74454,3.56783 -0.56011,0.46484 -0.47122,1.29024 0.13903,1.29024 0.66406,0 0.92237,0.5304 1.28145,2.63122 0.41271,2.41448 0.41678,2.39602 -0.485,2.19794 -0.98661,-0.2167 -3.65812,0.53129 -3.65812,1.02425 0,0.21392 0.52372,0.48379 1.30011,0.67004 0.71504,0.17138 1.77203,0.65376 2.34885,1.0716 1.02515,0.74263 1.04876,0.79528 1.04876,2.33924 0,1.80772 -0.46761,5.14437 -0.80231,5.72477 -0.12422,0.21547 -0.22934,0.25585 -0.23365,0.0897 -0.009,-0.3543 -2.28687,-1.91672 -2.79401,-1.91672 -0.2318,0 -0.32566,0.28266 -0.28143,0.84821 0.0623,0.79565 -0.0277,0.89373 -1.45123,1.58344 -3.14177,1.52229 -6.55727,1.78671 -10.16159,0.78675 -1.28725,-0.35714 -1.50065,-0.50424 -1.50065,-1.03443 0,-0.86645 -0.60374,-0.77592 -1.43811,0.21578 -0.56847,0.67556 -0.6734,1.00733 -0.55309,1.7487 0.17693,1.09098 1.62426,2.70125 1.95337,2.17343 0.16029,-0.25708 0.47351,-0.18464 1.371,0.31682 3.43106,1.91768 8.00086,1.76389 12.31601,-0.41438 0.84741,-0.42776 1.59442,-0.72408 1.66001,-0.65845 0.3532,0.35316 -2.51115,6.03274 -4.66248,9.24507 -1.42427,2.12667 -1.55401,2.17205 -4.12209,1.4419 z m 1.4354,-6.46587 c 0,-0.4669 -0.19944,-0.53003 -1.89213,-0.59865 -1.47877,-0.0598 -1.89213,0.003 -1.89213,0.28637 0,0.56933 1.05381,0.94678 2.47934,0.88803 1.113,-0.0459 1.30492,-0.13039 1.30492,-0.57575 z m -0.96489,-9.8157 c 0.0506,-0.43556 -0.16121,-0.96685 -0.58721,-1.47309 -0.36645,-0.4355 -0.66625,-0.84612 -0.66625,-0.91245 0,-0.0663 0.60195,-1.16509 1.33771,-2.44167 1.21502,-2.10815 2.05506,-3.97716 2.05506,-4.57223 0,-0.12546 -0.16491,-0.22811 -0.36657,-0.22811 -0.20159,0 -0.74645,0.67313 -1.21074,1.49584 -0.46431,0.82269 -1.54004,2.22048 -2.3905,3.10614 -2.03161,2.1157 -2.08201,3.16427 -0.2466,5.13124 0.88616,0.94968 1.95902,0.89509 2.07513,-0.10573 z m -4.85304,-5.64762 c 1.36835,-1.57774 0.26448,-5.49559 -1.23864,-4.39643 -0.68212,0.49877 -0.86627,3.29829 -0.27619,4.19884 0.50386,0.76899 0.96688,0.82941 1.51483,0.19759 z m -0.72204,-7.5116 c 0.27865,-0.21084 0.89521,-0.38316 1.37016,-0.38316 0.47495,0 0.86356,-0.12514 0.86356,-0.27804 0,-0.5964 -0.56499,-1.28774 -1.05236,-1.28774 -0.6025,0 -2.66287,1.77727 -2.45336,2.11629 0.20776,0.33596 0.69067,0.27249 1.272,-0.16738 z m -48.35543,27.85241 c -0.27095,-0.38596 -0.64631,-1.13223 -0.83379,-1.65838 -0.29684,-0.83301 -0.2842,-1.04339 0.099,-1.6278 0.76603,-1.16913 3.66089,-2.24375 6.04425,-2.24375 1.07119,0 4.29459,1.12992 4.60071,1.6127 0.39671,0.62569 0.24937,2.47706 -0.24599,3.08866 l -0.47242,0.58342 -1.75551,-0.59298 c -1.53785,-0.51946 -1.8854,-0.55401 -2.80365,-0.27896 -0.57649,0.17262 -1.11324,0.48361 -1.1928,0.69091 -0.0795,0.20714 -0.3707,0.37686 -0.64705,0.37686 -0.2765,0 -0.90683,0.16892 -1.40108,0.37548 -0.86896,0.36306 -0.91501,0.35227 -1.39162,-0.32622 z m 40.36184,0.0336 c 0.18834,-0.0755 0.41349,-0.0663 0.5002,0.0216 0.0866,0.0866 -0.0675,0.14827 -0.34253,0.13717 -0.30393,-0.0123 -0.36586,-0.0743 -0.15782,-0.15782 z m 6.07402,-1.48727 -0.63003,-0.81381 0.74668,0.70981 c 0.41068,0.39036 0.69417,0.7566 0.63003,0.81381 -0.0641,0.057 -0.40017,-0.26232 -0.74668,-0.70981 z m -29.27245,-3.22792 -0.63272,-0.7177 0.7177,0.63271 c 0.67081,0.59135 0.83742,0.80271 0.63271,0.80271 -0.0469,0 -0.36971,-0.32298 -0.71769,-0.71772 z m -1.96244,-1.95739 -0.49715,-0.58721 0.58719,0.49717 c 0.55186,0.46722 0.70604,0.67726 0.49717,0.67726 -0.0496,0 -0.31376,-0.26417 -0.58721,-0.58722 z m -9.65908,-3.39277 c -0.37468,-1.13917 -0.16214,-3.94569 0.41546,-5.48283 1.34171,-3.57144 4.38034,-4.7152 5.61494,-2.11351 0.40436,0.85215 0.39687,1.03735 -0.13347,3.30347 -0.61484,2.6265 -0.86905,3.03204 -2.59287,4.13662 -1.48829,0.95363 -3.01788,1.02597 -3.30394,0.15628 z m 46.15647,0.40026 c 0.39471,-0.0598 1.04065,-0.0598 1.43539,0 0.39474,0.0598 0.0718,0.10881 -0.7177,0.10881 -0.78948,0 -1.11244,-0.049 -0.71769,-0.10881 z m -42.40998,-10.94726 c 0.1794,-0.0724 0.47304,-0.0724 0.65247,0 0.1794,0.0724 0.0327,0.13163 -0.32625,0.13163 -0.35883,0 -0.50565,-0.0592 -0.32622,-0.13163 z m 72.16275,-6.48223 c 0.003,-0.57418 0.0564,-0.77833 0.11867,-0.45368 0.0626,0.32461 0.0601,0.79439 -0.006,1.04391 -0.0653,0.24969 -0.11652,-0.0154 -0.11344,-0.59023 z m -25.43022,-15.70687 c 0.18834,-0.0755 0.41348,-0.066 0.50019,0.0216 0.0866,0.0866 -0.0675,0.14827 -0.34252,0.13718 -0.30394,-0.0123 -0.36587,-0.0743 -0.15783,-0.15752 z m 3.44172,-0.96421 c 0,-0.0542 0.2056,-0.25985 0.45673,-0.4567 0.41392,-0.32465 0.42317,-0.3154 0.0986,0.0986 -0.34095,0.43473 -0.55528,0.57298 -0.55528,0.35819 z"
         id="path886" />
      <path
         style="fill:#d8d2a0;stroke-width:0.260984"
         d="m 197.71654,202.72011 c -1.98629,-0.41925 -2.6564,-9.50823 -0.85739,-11.62935 l 0.50497,-0.59536 0.54748,0.72257 c 1.12952,1.49076 4.66354,3.32268 6.40986,3.32268 0.78582,0 0.77035,0.11929 -0.1421,1.09561 -1.49886,1.60376 -1.67016,3.55097 -0.42212,4.79901 0.73191,0.73194 1.23602,0.79334 1.80896,0.2204 0.5608,-0.5608 0.0937,-1.4173 -0.77296,-1.4173 -0.9299,0 -0.85946,-1.18916 0.1532,-2.5872 0.93263,-1.28746 1.41699,-1.2997 2.25447,-0.057 1.15356,1.71174 1.03445,3.89679 -0.29685,5.44605 l -0.61985,0.72137 -4.00324,0.0385 c -2.20176,0.0216 -4.25584,-0.0154 -4.56464,-0.0801 z M 131.2417,166.42992 c -0.415,-0.10665 -0.37027,-0.19481 0.30868,-0.60768 1.15171,-0.7004 2.79524,-2.89674 3.42283,-4.57414 0.299,-0.79944 0.71166,-2.41455 0.91676,-3.58907 0.20499,-1.17455 0.60189,-2.76715 0.88175,-3.53913 l 0.5088,-1.40358 0.28975,1.35118 c 0.77318,3.60509 -0.23673,6.99553 -3.2335,10.85521 -1.32322,1.70425 -1.67099,1.8736 -3.0951,1.50721 z m -5.64787,-0.75702 c -2.14735,-0.46586 -2.55726,-0.64995 -1.03349,-0.46414 1.46011,0.17817 4.20458,-0.29653 5.48141,-0.94802 1.70335,-0.86898 2.23527,-2.34066 1.41751,-3.92201 -0.21885,-0.4235 -0.30701,-0.77077 -0.19574,-0.77176 0.39761,-0.003 1.37686,-1.73988 1.37686,-2.44143 0,-0.88868 -0.53142,-1.93543 -1.38959,-2.73697 l -0.65623,-0.61296 0.63145,-1.18756 c 0.72704,-1.36739 0.82882,-3.10293 0.24783,-4.22643 -0.58447,-1.13023 -2.33267,-2.37337 -4.65385,-3.30927 -1.75804,-0.70885 -2.21434,-1.02213 -2.83516,-1.94647 -0.40692,-0.6059 -0.73986,-1.20141 -0.73986,-1.32335 0,-0.12207 0.44043,-0.22225 0.9787,-0.22255 1.0289,-0.001 2.33461,-0.65371 3.50211,-1.75058 l 0.69655,-0.65439 -0.0123,1.48715 -0.0123,1.48712 3.39336,3.30437 c 3.15888,3.07599 3.4159,3.40033 3.71875,4.69285 0.53068,2.26474 -0.0123,4.26534 -1.61606,5.95673 -0.87419,0.92188 -0.89503,1.79882 -0.0422,1.77268 0.49779,-0.0154 0.52181,0.0672 0.30455,1.04392 -0.65077,2.92633 -2.22152,5.09767 -4.60758,6.36944 -1.72897,0.92151 -1.61825,0.91023 -3.95268,0.40375 z m -2.60985,-2.11888 c -1.39982,-0.25615 -4.71369,-1.70058 -4.96075,-2.16221 -0.24105,-0.45063 -0.12823,-0.44071 1.51375,0.13285 3.99975,1.39742 6.95888,1.39831 9.34011,0.003 1.348,-0.79001 1.31854,-0.78795 1.49744,-0.10388 0.19667,0.75194 -0.83138,1.66223 -2.29285,2.03025 -1.1293,0.28421 -3.80333,0.33673 -5.0977,0.0999 z m 5.43909,-5.1661 c -1.09311,-0.59369 -5.37124,-1.2379 -7.13548,-1.07444 l -1.5659,0.14519 1.17443,-0.57223 c 1.64725,-0.80259 4.91272,-0.79991 7.43805,0.006 2.45305,0.78292 2.76194,1.00425 2.10321,1.50682 -0.62611,0.47772 -1.119,0.47495 -2.01431,-0.0123 z m 45.89945,-3.43424 c -0.97447,-0.36925 -1.73785,-0.69618 -1.69639,-0.72651 0.0416,-0.0308 1.2285,0.0589 2.63791,0.1982 2.66842,0.26386 3.27881,0.11714 2.96098,-0.71113 -0.12453,-0.3244 -0.59067,-0.40901 -2.25303,-0.40901 -1.15285,0 -2.09606,-0.0555 -2.09606,-0.1233 0,-0.0678 0.69396,-1.18001 1.54211,-2.4717 1.78337,-2.71595 4.24015,-7.58799 4.29351,-8.51449 0.0496,-0.86036 0.31981,-0.7988 0.64988,0.14796 0.3675,1.05418 0.74119,0.98578 1.06932,-0.19574 0.36056,-1.29831 0.34515,-1.74028 -0.0974,-2.7997 -0.32042,-0.7669 -0.32169,-1.17416 -0.009,-2.92769 0.19975,-1.1203 0.36719,-2.77607 0.37222,-3.67951 0.006,-1.41684 0.0718,-1.63203 0.46582,-1.56591 0.66456,0.11159 0.58682,-1.92033 -0.10974,-2.86894 -0.30331,-0.4129 -0.65832,-1.57161 -0.85175,-2.77923 -0.18248,-1.13911 -0.39548,-2.25482 -0.47335,-2.47934 -0.078,-0.22472 0.4015,0.11281 1.06525,0.74987 0.66375,0.637 1.28213,1.08288 1.37414,0.99084 0.53624,-0.5362 -1.62888,-3.84538 -2.51593,-3.84538 -0.29006,0 -0.59109,-0.2056 -0.66868,-0.45673 -0.0777,-0.25122 -0.4412,-1.26117 -0.80805,-2.2444 l -0.66698,-1.78769 0.64491,-0.64488 0.64492,-0.64492 2.11589,2.2615 2.11585,2.2615 2.03546,-0.43454 c 1.16639,-0.24907 2.81549,-0.39884 3.86237,-0.35088 1.81759,0.0832 1.82727,0.0875 1.90307,0.86661 0.053,0.54551 -0.24383,1.3129 -0.9787,2.5303 -0.58018,0.96106 -1.05489,1.8813 -1.05489,2.04505 0,0.16368 0.6759,0.96318 1.50201,1.77656 0.82611,0.81338 1.76747,1.94835 2.09196,2.52219 l 0.58999,1.0433 -0.98279,-1.0556 c -1.2681,-1.36206 -2.74261,-2.46769 -3.29105,-2.46769 -0.81628,0 -0.43053,0.78492 0.83122,1.69142 1.76547,1.26836 4.41382,5.2457 3.86101,5.79851 -0.0912,0.0912 -0.16553,-0.0123 -0.16553,-0.22903 0,-0.72078 -2.03068,-3.54958 -3.04091,-4.23602 -2.05285,-1.39495 -2.681,-0.49046 -0.66514,0.95776 0.91636,0.65839 1.51184,1.39322 2.21835,2.73775 0.53117,1.01081 0.96574,1.98509 0.96574,2.16511 0,0.18002 0.30671,0.95452 0.68194,1.72114 1.29107,2.63886 0.18711,4.24206 -3.81375,5.53868 -0.63228,0.20499 -1.0741,0.59536 -1.43542,1.26854 -0.45251,0.84312 -2.40145,2.62003 -6.27839,5.72422 -0.94796,0.759 -0.99624,0.8581 -0.61197,1.25605 0.3875,0.40131 0.47113,0.38868 1.17443,-0.17786 1.77983,-1.43332 1.7179,-1.40805 1.39976,-0.57103 -0.95616,2.51553 -2.82532,4.74744 -4.59517,5.48693 -1.36733,0.57131 -3.88461,0.42585 -5.90963,-0.34148 z m 16.80486,-20.25946 c -0.46722,-0.87297 -1.81152,-1.63117 -2.20118,-1.24148 -0.22687,0.22687 -0.0216,0.55883 0.83905,1.35319 0.79948,0.73819 1.22203,0.97024 1.41514,0.77715 0.19328,-0.19327 0.17725,-0.45855 -0.053,-0.88886 z m 1.92615,-0.17231 c 0.42801,-0.69255 -2.214,-3.66145 -3.25832,-3.66145 -0.83162,0 -0.61452,0.48882 0.76986,1.7335 0.71008,0.63842 1.36391,1.39039 1.45299,1.67102 0.17046,0.53743 0.77016,0.68619 1.03547,0.25677 z m -65.50231,17.47545 c -1.75114,-0.82867 -4.58466,-1.43537 -5.84179,-1.25088 -1.16247,0.17046 -0.89645,-0.35409 0.41321,-0.81501 0.97582,-0.34345 1.19588,-0.32573 2.83605,0.22841 l 1.77813,0.60063 0.49388,-0.60994 c 0.36783,-0.45423 0.47177,-0.92891 0.4072,-1.8596 -0.0478,-0.68731 -0.006,-1.24961 0.0888,-1.24952 0.0965,9e-5 0.68028,0.38522 1.2973,0.85582 1.5181,1.15791 1.80646,2.17926 1.05304,3.73003 -0.3089,0.63577 -0.65124,1.14589 -0.76076,1.13359 -0.10943,-0.0123 -0.90379,-0.35587 -1.76503,-0.76341 z m 41.88799,-20.45246 c 0,-0.0543 0.2056,-0.25986 0.4567,-0.45674 0.41395,-0.32465 0.42316,-0.3154 0.0986,0.0986 -0.34093,0.43473 -0.55525,0.57298 -0.55525,0.35819 z m -6.44738,-11.92796 c -0.58703,-0.37686 -1.00227,-0.97863 -1.39347,-2.01946 -0.62143,-1.6532 -0.57981,-2.79594 0.15844,-4.35171 0.45495,-0.95875 0.47394,-0.96883 0.696,-0.36857 0.87509,2.36563 2.53775,2.12495 7.2151,-1.04454 1.92603,-1.30512 3.53457,-2.11193 4.21056,-2.11193 0.29992,0 0.91454,0.1908 1.36582,0.4243 l 0.8205,0.42428 1.66312,-1.76418 c 1.15594,-1.22612 1.7463,-1.68103 1.93575,-1.49158 0.45578,0.4558 0.98945,3.213 0.99376,5.13447 0.003,1.41077 -0.0657,1.74423 -0.30911,1.50065 -0.50263,-0.50266 -0.9241,-0.37292 -2.02772,0.62415 -1.42658,1.28882 -2.62022,1.42667 -4.58099,0.52901 -0.82096,-0.37588 -1.74719,-0.68339 -2.05824,-0.68339 -0.3417,0 -1.23309,0.65063 -2.25207,1.64374 -1.51526,1.47683 -4.40587,3.6547 -5.26986,3.97047 -0.18218,0.0666 -0.70771,-0.12053 -1.16762,-0.41571 z m 7.62181,-2.58864 c 0.25985,-0.28698 0.53108,-0.52199 0.60284,-0.52199 0.0718,0 -0.082,0.23489 -0.34188,0.52199 -0.25986,0.28698 -0.53108,0.52196 -0.60287,0.52196 -0.0718,0 0.082,-0.23489 0.34191,-0.52196 z"
         id="path884" />
      <path
         style="fill:#cac873;stroke-width:0.260984"
         d="m 175.31135,202.33779 c -3.17296,-0.20961 -5.4753,-0.5878 -8.74299,-1.43595 -2.81379,-0.73037 -6.2599,-1.91466 -6.27115,-2.15516 -0.003,-0.0885 -0.34006,-2.80325 -0.74652,-6.03293 -0.40642,-3.22968 -0.71655,-5.90115 -0.68915,-5.93663 0.0277,-0.0354 0.98144,0.3392 2.12008,0.83264 3.75154,1.62577 5.4926,1.81852 6.10416,0.67578 0.1492,-0.27897 0.44259,-4.12389 0.65167,-8.54415 0.49906,-10.54964 0.83635,-14.6734 1.49335,-18.25668 l 0.29468,-1.60733 -1.0604,-1.20467 c -1.54782,-1.75841 -2.02523,-2.87957 -2.02628,-4.75863 -5.2e-4,-0.88517 0.0728,-1.6831 0.16276,-1.77317 0.09,-0.09 1.08833,0.50454 2.21834,1.3214 8.03905,5.81118 13.87405,4.74984 17.31849,-3.15003 0.4756,-1.09083 0.94358,-1.95005 1.03994,-1.90936 0.0965,0.0407 1.07937,0.48503 2.18447,0.98745 1.96038,0.89121 2.00526,0.93248 1.84531,1.69639 -0.36559,1.74601 -1.99096,4.29379 -3.89029,6.09797 -2.00668,1.90612 -5.36776,3.8217 -8.09851,4.61554 -0.76175,0.22132 -1.49868,0.54396 -1.63758,0.71671 -1.17162,1.45681 -2.53849,24.54909 -1.57789,26.65736 0.16645,0.36512 0.82123,0.91267 1.46332,1.2235 1.00942,0.48867 1.44824,0.54243 3.33834,0.40905 1.19687,-0.0845 4.26718,-0.58906 6.82291,-1.12132 2.55575,-0.53225 4.9404,-0.97884 5.29926,-0.99241 l 0.65244,-0.0247 0.15475,4.56724 c 0.0851,2.51195 0.24074,4.98633 0.34641,5.49858 l 0.19173,0.93138 -2.3038,0.691 c -6.02353,1.80677 -10.76391,2.37053 -16.65791,1.98109 z m 5.22153,-59.46905 c -0.0916,-0.14796 0.0123,-0.19173 0.24567,-0.10265 0.45214,0.17355 0.53485,0.36059 0.15937,0.36059 -0.13501,0 -0.31734,-0.11621 -0.40504,-0.258 z m 14.56314,-14.11088 c -0.58678,-1.06919 -1.65875,-2.54521 -2.38209,-3.28005 L 191.39879,124.14174 192,123.25697 c 0.33069,-0.48664 0.81356,-1.48265 1.07308,-2.21336 0.6021,-1.69524 0.25923,-2.71993 -1.13076,-3.37955 -1.03633,-0.49178 -3.86066,-0.41253 -6.18856,0.17355 l -1.2219,0.30763 -1.90159,-2.0592 -1.90159,-2.0592 -0.13625,-2.34885 c -0.14611,-2.51757 -0.67716,-4.47754 -1.18463,-4.3715 -0.56647,0.11836 -0.32533,-0.1757 0.48981,-0.59705 1.12619,-0.58238 1.99681,-0.31096 3.7456,1.16768 1.48887,1.25889 2.29843,1.58249 3.95878,1.58249 0.75601,0 1.0154,0.19327 1.94166,1.44717 0.58799,0.79593 1.71788,2.05845 2.51085,2.80559 4.14755,3.9078 4.18698,3.95342 4.78039,5.53415 1.09872,2.9267 0.94617,7.63863 -0.34595,10.68632 l -0.32597,0.7689 z m -34.09132,-5.15245 c -0.77666,-0.85819 -1.04431,-2.0259 -0.65197,-2.84446 0.43142,-0.90012 0.65096,-0.90869 1.72619,-0.0672 l 0.84861,0.66416 -0.74516,1.36267 c -0.71073,1.29967 -0.7652,1.34058 -1.17767,0.8848 z m 8.43451,-7.49058 c 0.3371,-0.35883 0.67167,-0.65244 0.74343,-0.65244 0.0718,0 -0.14518,0.29346 -0.48247,0.65244 -0.33713,0.35887 -0.67168,0.65247 -0.74344,0.65247 -0.0718,0 0.14519,-0.29345 0.48248,-0.65247 z m 8.87344,-1.5659 c 0.33714,-0.35884 0.67168,-0.65244 0.74347,-0.65244 0.0718,0 -0.14519,0.29376 -0.48247,0.65244 -0.33713,0.35886 -0.67168,0.65247 -0.74347,0.65247 -0.0718,0 0.14519,-0.29376 0.48247,-0.65247 z m 1.256,-0.83074 c 0.18834,-0.0755 0.41348,-0.0663 0.50022,0.0216 0.0866,0.0866 -0.0675,0.14827 -0.34255,0.13717 -0.30394,-0.0123 -0.36587,-0.0743 -0.15783,-0.15751 z m -1.90844,-5.04141 c 0.25986,-0.28698 0.53109,-0.52196 0.60285,-0.52196 0.0718,0 -0.082,0.23489 -0.34188,0.52196 -0.25986,0.28698 -0.53109,0.52199 -0.60288,0.52199 -0.0718,0 0.082,-0.23489 0.34191,-0.52199 z"
         id="path882" />
      <path
         style="fill:#a4a5a4;stroke-width:0.260984"
         d="m 203.96377,257.8569 c -2.48221,-0.80891 -4.22715,-2.24193 -5.30682,-4.35825 -0.85083,-1.66778 -0.84673,-1.67049 2.55708,-1.68517 2.70726,-0.0123 3.29334,-0.0989 5.00193,-0.74543 l 1.93534,-0.73222 0.46265,0.61338 c 1.03532,1.37255 1.43518,4.30588 0.75913,5.56905 -0.74063,1.38392 -3.31522,2.02104 -5.40931,1.33864 z m -47.88372,-2.16321 c 0.18834,-0.0755 0.41349,-0.066 0.50023,0.0216 0.0866,0.0866 -0.0675,0.14827 -0.34256,0.13717 -0.30393,-0.0123 -0.36586,-0.0743 -0.15782,-0.15782 z m -4.46862,-1.41301 c -1.29863,-0.30547 -2.00705,-0.69627 -2.00705,-1.10705 0,-0.96824 3.6231,-3.1847 6.69142,-4.09355 0.99629,-0.29499 1.19909,-0.26324 2.60982,0.4105 1.31323,0.6271 1.93571,0.74661 4.40044,0.84479 2.61408,0.10419 5.37926,-0.20745 7.89479,-0.88964 0.4711,-0.12762 0.58721,-0.0524 0.58721,0.38087 0,2.19683 -2.65387,3.45819 -4.18651,1.98981 l -0.69181,-0.66276 -2.25518,0.90915 c -5.06173,2.04061 -10.13209,2.90278 -13.04313,2.21788 z m 16.3271,-0.41549 c 0.25122,-0.0657 0.66224,-0.0657 0.91346,0 0.25122,0.0657 0.0456,0.11929 -0.45673,0.11929 -0.50239,0 -0.70793,-0.0536 -0.45673,-0.11929 z m 43.01778,-0.23334 c 0.0123,-0.30394 0.0743,-0.36586 0.15782,-0.15783 0.0755,0.18834 0.0663,0.41349 -0.0216,0.50023 -0.0866,0.0866 -0.14827,-0.0675 -0.13718,-0.34256 z m -37.81247,-4.41496 c 0.006,-0.43063 0.0638,-0.57523 0.13008,-0.32129 0.0663,0.25399 0.0616,0.60626 -0.009,0.78295 -0.0715,0.17663 -0.12576,-0.0311 -0.12022,-0.46166 z m -16.44202,-2.34886 c 0.006,-0.43063 0.0638,-0.57523 0.13008,-0.32129 0.0663,0.254 0.062,0.60626 -0.009,0.78295 -0.0715,0.17663 -0.12577,-0.0311 -0.12022,-0.46166 z m 53.21054,-0.0216 c 0.0123,-0.30394 0.0743,-0.36586 0.15752,-0.15783 0.0755,0.18835 0.0663,0.41349 -0.0216,0.50023 -0.0866,0.0866 -0.14827,-0.0675 -0.13717,-0.34256 z m -35.47326,-1.67466 c 0,-0.35883 0.0592,-0.50565 0.13162,-0.32622 0.0724,0.1794 0.0724,0.47304 0,0.65247 -0.0724,0.1794 -0.13162,0.0327 -0.13162,-0.32625 z m 0.26109,-3.65377 c 0,-0.35886 0.0592,-0.50565 0.13162,-0.32622 0.0724,0.1794 0.0724,0.47301 0,0.65244 -0.0724,0.1794 -0.13162,0.0327 -0.13162,-0.32622 z m 35.21229,0.10881 c 0.0123,-0.30393 0.0743,-0.36589 0.15783,-0.15782 0.0755,0.18834 0.0663,0.41352 -0.0216,0.50023 -0.0866,0.0866 -0.14827,-0.0675 -0.13717,-0.34253 z m -52.95922,-0.36974 c 0,-0.35883 0.0592,-0.50565 0.13162,-0.32622 0.0724,0.1794 0.0724,0.47304 0,0.65247 -0.0724,0.1794 -0.13162,0.0327 -0.13162,-0.32625 z m 0.26109,-4.17573 c 0,-0.35886 0.0592,-0.50568 0.13162,-0.32625 0.0724,0.1794 0.0724,0.47304 0,0.65247 -0.0724,0.1794 -0.13162,0.0327 -0.13162,-0.32622 z m 0.24043,-4.06701 c 0.0123,-0.30393 0.0743,-0.36589 0.15783,-0.15782 0.0755,0.18834 0.0663,0.41351 -0.0216,0.50022 -0.0866,0.0866 -0.14827,-0.0675 -0.13717,-0.34252 z m 0.26109,-4.17576 c 0.0123,-0.30393 0.0743,-0.36586 0.15782,-0.15782 0.0755,0.18834 0.066,0.41348 -0.0216,0.50019 -0.0866,0.0866 -0.14827,-0.0675 -0.13717,-0.34252 z m 0.26109,-4.17576 c 0.0123,-0.30393 0.0743,-0.36586 0.15782,-0.15782 0.0755,0.18834 0.0663,0.41348 -0.0216,0.50022 -0.0866,0.0866 -0.14826,-0.0675 -0.13717,-0.34255 z m 0.26108,-4.17573 c 0.0123,-0.30393 0.0743,-0.36589 0.15752,-0.15782 0.0755,0.18834 0.0663,0.41351 -0.0216,0.50022 -0.0866,0.0866 -0.14827,-0.0675 -0.13717,-0.34252 z m 0.26109,-4.17576 c 0.0123,-0.30393 0.0743,-0.36586 0.15783,-0.15782 0.0755,0.18834 0.066,0.41348 -0.0216,0.50022 -0.0866,0.0866 -0.14858,-0.0675 -0.13717,-0.34255 z m 0.2913,-5.19794 c 0.006,-0.43063 0.0638,-0.5752 0.13008,-0.32126 0.0663,0.254 0.0616,0.60626 -0.009,0.78295 -0.0715,0.17663 -0.12576,-0.0311 -0.12022,-0.46169 z m 41.38341,-6.83969 c 0.32465,-0.0623 0.79442,-0.0601 1.04395,0.006 0.24968,0.0653 -0.0154,0.11652 -0.59027,0.11344 -0.57417,-0.003 -0.77832,-0.0564 -0.45368,-0.11868 z m 2.60986,0 c 0.32461,-0.0623 0.79439,-0.0601 1.04391,0.006 0.24969,0.0653 -0.0154,0.11652 -0.59023,0.11344 -0.57418,-0.003 -0.77833,-0.0564 -0.45368,-0.11868 z m -43.72269,-0.85958 c 0,-0.50241 0.0536,-0.70792 0.11929,-0.45673 0.0657,0.25122 0.0657,0.66224 0,0.91343 -0.0657,0.25123 -0.11929,0.0456 -0.11929,-0.4567 z m 47.38968,0.60466 c 0.18834,-0.0755 0.41349,-0.0663 0.50023,0.0216 0.0866,0.0866 -0.0675,0.14827 -0.34256,0.13717 -0.30393,-0.0123 -0.36586,-0.0743 -0.15751,-0.15751 z m -4.69772,-1.04395 c 0.18834,-0.0755 0.41349,-0.066 0.50023,0.0216 0.0866,0.0866 -0.0675,0.14858 -0.34256,0.13717 -0.30393,-0.0123 -0.36586,-0.0743 -0.15751,-0.15782 z m 1.14373,-4.6499 c 0.006,-0.43063 0.0638,-0.5752 0.13008,-0.32129 0.0663,0.25399 0.0616,0.60626 -0.009,0.78295 -0.0715,0.17663 -0.12577,-0.0311 -0.12022,-0.46166 z m -7.30754,-2.0879 c 0.006,-0.43062 0.0638,-0.57519 0.13008,-0.32126 0.0663,0.254 0.0616,0.60627 -0.009,0.78296 -0.0715,0.17662 -0.12576,-0.0311 -0.12021,-0.4617 z m 1.03427,-7.96001 c 0,-0.35887 0.0592,-0.50565 0.13162,-0.32622 0.0724,0.1794 0.0724,0.47301 0,0.65244 -0.0724,0.1794 -0.13162,0.0327 -0.13162,-0.32622 z m -1.56591,-0.52196 c 0,-0.35886 0.0592,-0.50568 0.13162,-0.32625 0.0724,0.1794 0.0724,0.47304 0,0.65247 -0.0724,0.1794 -0.13162,0.0327 -0.13162,-0.32622 z m -38.61601,-9.52595 c 0.006,-0.43062 0.0638,-0.57519 0.13008,-0.32126 0.0663,0.254 0.062,0.60627 -0.009,0.78296 -0.0715,0.17662 -0.12577,-0.0311 -0.12022,-0.4617 z m 44.05547,-0.75099 c 0,-0.0542 0.2056,-0.25985 0.45673,-0.45673 0.41392,-0.32462 0.42317,-0.3154 0.0986,0.0986 -0.34095,0.43472 -0.55528,0.57297 -0.55528,0.35818 z m -44.04583,-8.77493 c 0,-0.50238 0.0536,-0.70792 0.1193,-0.45673 0.0657,0.25122 0.0657,0.66224 0,0.91346 -0.0657,0.25123 -0.1193,0.0456 -0.1193,-0.45673 z m -18.52519,-0.44089 c 0.25122,-0.0657 0.66227,-0.0657 0.91347,0 0.25122,0.0657 0.0456,0.11929 -0.45674,0.11929 -0.50238,0 -0.70792,-0.0536 -0.45673,-0.11929 z m 4.84454,-0.25924 c 0.18834,-0.0755 0.41348,-0.0663 0.50023,0.0216 0.0866,0.0866 -0.0675,0.14827 -0.34256,0.13717 -0.30394,-0.0123 -0.36586,-0.0743 -0.15783,-0.15751 z m -14.63142,-0.51653 c 0.1794,-0.0724 0.47301,-0.0724 0.65244,0 0.1794,0.0724 0.0327,0.13162 -0.32622,0.13162 -0.35887,0 -0.50565,-0.0592 -0.32622,-0.13162 z m -3.6108,-2.25814 c 0.11806,-0.11806 0.67035,-0.17447 1.22754,-0.12577 l 1.01306,0.0885 -1.22754,0.12577 c -0.67513,0.0694 -1.13103,0.0308 -1.01306,-0.0885 z m -2.13087,-7.92025 c 0.1794,-0.0724 0.47304,-0.0724 0.65247,0 0.1794,0.0724 0.0327,0.13162 -0.32625,0.13162 -0.35883,0 -0.50565,-0.0592 -0.32622,-0.13162 z m 8.69833,-0.24043 c 0.0123,-0.30394 0.0743,-0.3659 0.15752,-0.15783 0.0755,0.18834 0.0663,0.41352 -0.0216,0.50023 -0.0866,0.0866 -0.14827,-0.0675 -0.13717,-0.34253 z m 2.45875,-0.63071 c 0.25986,-0.28698 0.53109,-0.52199 0.60288,-0.52199 0.0718,0 -0.082,0.23488 -0.34191,0.52199 -0.25986,0.28698 -0.53109,0.52196 -0.60285,0.52196 -0.0718,0 0.082,-0.23489 0.34188,-0.52196 z m -3.41759,-1.10921 -0.49717,-0.58721 0.58721,0.49717 c 0.55183,0.46722 0.70602,0.67726 0.49718,0.67726 -0.0496,0 -0.31377,-0.26417 -0.58722,-0.58722 z m 47.46367,0.40637 c 0.25399,-0.0663 0.60626,-0.062 0.78295,0.009 0.17663,0.0715 -0.0311,0.12576 -0.4617,0.12021 -0.43062,-0.006 -0.57519,-0.0638 -0.32125,-0.13008 z m -1.04395,-1.30491 c 0.254,-0.0663 0.60626,-0.062 0.78295,0.009 0.17663,0.0715 -0.0311,0.12577 -0.46166,0.12022 -0.43063,-0.006 -0.57523,-0.0638 -0.32129,-0.13008 z m -28.58275,-3.38479 c 0.1794,-0.0724 0.47304,-0.0724 0.65247,0 0.1794,0.0724 0.0327,0.13162 -0.32625,0.13162 -0.35883,0 -0.50565,-0.0592 -0.32622,-0.13162 z m 10.71668,-0.006 c 0.18834,-0.0755 0.41349,-0.0663 0.5002,0.0216 0.0866,0.0866 -0.0675,0.14827 -0.34253,0.13717 -0.30393,-0.0123 -0.36586,-0.0743 -0.15751,-0.15783 z M 116.721,147.46424 c 0,-0.0542 0.2056,-0.25954 0.45674,-0.4567 0.41391,-0.32465 0.42316,-0.3154 0.0986,0.0986 -0.34096,0.43476 -0.55528,0.573 -0.55528,0.35819 z m 16.93068,-2.18505 c -0.32461,-0.41395 -0.3154,-0.4232 0.0986,-0.0986 0.25123,0.19697 0.45674,0.40251 0.45674,0.45673 0,0.21485 -0.21424,0.0764 -0.55525,-0.35819 z m 54.05706,0.0971 c 0,-0.0543 0.2056,-0.25986 0.45673,-0.45674 0.41392,-0.32461 0.42316,-0.3154 0.0986,0.0986 -0.34095,0.43473 -0.55528,0.57298 -0.55528,0.35819 z m -57.57184,-1.53262 -0.49717,-0.58721 0.58721,0.49717 c 0.55183,0.46721 0.70602,0.67726 0.49718,0.67726 -0.0496,0 -0.31377,-0.26417 -0.58722,-0.58722 z m 40.67312,0.40732 c 0.25122,-0.0657 0.66224,-0.0657 0.91344,0 0.25122,0.0657 0.0456,0.11929 -0.45674,0.11929 -0.50238,0 -0.70792,-0.0536 -0.4567,-0.11929 z m -0.63616,-1.04231 c 0.18834,-0.0755 0.41348,-0.0663 0.50022,0.0216 0.0866,0.0866 -0.0675,0.14827 -0.34255,0.13718 -0.30394,-0.0123 -0.36587,-0.0743 -0.15783,-0.15752 z m 1.5659,0 c 0.18834,-0.0755 0.41349,-0.0663 0.50023,0.0216 0.0866,0.0866 -0.0675,0.14827 -0.34256,0.13718 -0.30393,-0.0123 -0.36586,-0.0743 -0.15782,-0.15752 z m -41.74185,-1.32239 c -0.32464,-0.41395 -0.3154,-0.42317 0.0986,-0.0986 0.25123,0.19697 0.45674,0.40254 0.45674,0.45673 0,0.21485 -0.21424,0.0764 -0.55528,-0.35818 z m 64.7574,-0.16368 c 0,-0.0542 0.20561,-0.25986 0.45674,-0.45674 0.41395,-0.32464 0.42316,-0.3154 0.0986,0.0986 -0.34096,0.43473 -0.55528,0.57298 -0.55528,0.35819 z m -35.94475,-4.86017 c 0,-0.64593 0.0509,-0.9102 0.11312,-0.58721 0.0623,0.32295 0.0623,0.85144 0,1.17443 -0.0623,0.32295 -0.11312,0.0586 -0.11312,-0.58722 z m 1.28472,-0.91346 c 0.006,-0.43063 0.0638,-0.5752 0.13008,-0.32126 0.0663,0.254 0.0617,0.60626 -0.009,0.78295 -0.0715,0.17663 -0.12576,-0.0311 -0.12022,-0.46169 z m -1.31459,-0.91344 c 0,-0.35886 0.0592,-0.50565 0.13162,-0.32622 0.0724,0.1794 0.0724,0.47301 0,0.65244 -0.0724,0.1794 -0.13162,0.0327 -0.13162,-0.32622 z m 29.972,-1.28953 c 0,-0.13501 0.1162,-0.31734 0.258,-0.40501 0.14796,-0.0916 0.19173,0.0123 0.10265,0.24568 -0.17355,0.45214 -0.36056,0.53487 -0.36056,0.15936 z m -19.96531,-1.58129 c 0.25986,-0.28698 0.53108,-0.52199 0.60288,-0.52199 0.0718,0 -0.082,0.23489 -0.34188,0.52199 -0.25986,0.28698 -0.53112,0.52196 -0.60288,0.52196 -0.0718,0 0.082,-0.23488 0.34188,-0.52196 z m 10.90105,-4.8786 c 0.254,-0.0663 0.60627,-0.0617 0.78295,0.009 0.17663,0.0715 -0.0311,0.12577 -0.46166,0.12022 -0.43062,-0.006 -0.57522,-0.0638 -0.32129,-0.13008 z m -19.27735,-2.23323 -0.49718,-0.58722 0.58722,0.49718 c 0.32298,0.27342 0.58721,0.53768 0.58721,0.58721 0,0.209 -0.20991,0.0546 -0.67725,-0.49717 z m 20.73978,-3.78428 c -0.32465,-0.41392 -0.3154,-0.42317 0.0986,-0.0986 0.43472,0.34092 0.57297,0.55525 0.35818,0.55525 -0.0542,0 -0.25985,-0.20561 -0.45673,-0.45674 z m 8.85782,-2.59238 c 0.18834,-0.0755 0.41348,-0.0663 0.50019,0.0216 0.0866,0.0866 -0.0675,0.14826 -0.34252,0.13717 -0.30394,-0.0123 -0.36586,-0.0743 -0.15783,-0.15783 z m -14.49598,-1.5685 c 0.254,-0.0663 0.60624,-0.0617 0.78296,0.009 0.17662,0.0715 -0.0311,0.12577 -0.4617,0.12022 -0.43062,-0.006 -0.57519,-0.0638 -0.32126,-0.13008 z m 19.73131,-2.36374 c -0.32464,-0.41392 -0.3154,-0.42317 0.0986,-0.0986 0.43473,0.34095 0.57298,0.55528 0.35819,0.55528 -0.0542,0 -0.25986,-0.20561 -0.45673,-0.45674 z m -10.70038,-7.82953 c -0.32461,-0.41392 -0.3154,-0.42317 0.0986,-0.0986 0.43476,0.34095 0.57301,0.55528 0.35819,0.55528 -0.0542,0 -0.25985,-0.20561 -0.45673,-0.45674 z"
         id="path880" />
      <path
         style="fill:#45738b;stroke-width:0.260984"
         d="m 199.71338,250.35963 c -2.03281,-0.23828 -2.68001,-0.55892 -3.71631,-1.84142 -1.7266,-2.13682 -2.76827,-4.00468 -3.44161,-6.17115 -1.7191,-5.53126 -5.04964,-12.10988 -10.72574,-21.186 -1.03236,-1.65074 -2.43206,-4.08767 -3.11042,-5.41542 -0.71813,-1.40552 -1.3952,-2.41411 -1.62059,-2.41411 -0.43097,0 -0.31596,0.60293 0.37295,1.95528 0.21885,0.42949 0.44856,1.54519 0.51064,2.47937 0.0965,1.45078 -0.0425,2.19209 -0.95255,5.08328 -1.98223,6.29741 -3.14337,12.63135 -3.70605,20.2161 -0.17632,2.37475 -0.42233,4.14151 -0.59233,4.25134 -0.15998,0.10326 -1.40657,0.45343 -2.77021,0.77799 -3.53598,0.84158 -8.7126,0.85511 -10.50464,0.0277 l -1.23965,-0.57254 2.1e-4,-1.77632 c 1.3e-4,-0.97696 0.40766,-8.17696 0.90558,-15.99995 1.02511,-16.1051 1.50746,-26.81004 1.27298,-28.25157 -0.18619,-1.14416 -0.1529,-1.15205 1.89086,-0.44647 2.11755,0.73105 6.00855,1.6971 8.97958,2.22938 3.04322,0.54524 10.65987,0.62295 13.70167,0.13995 2.64065,-0.41944 6.80569,-1.45774 8.45451,-2.10762 l 1.26687,-0.49937 0.8901,1.74491 c 0.48953,0.95973 1.50805,2.88071 2.26339,4.26891 1.94252,3.57018 4.82367,11.8868 8.12169,23.44396 2.29473,8.04136 2.73589,10.28871 2.74082,13.96267 0.003,2.05744 -0.10942,3.33338 -0.32739,3.71937 -0.87203,1.54516 -5.3353,2.77224 -8.66436,2.38209 z m 3.06055,-57.37255 c -1.57235,-0.50254 -3.04689,-1.45414 -4.02987,-2.60067 -0.45479,-0.53047 -0.57939,-1.00739 -0.58524,-2.23986 -0.0247,-5.16287 2.4512,-9.91268 6.09698,-11.69785 1.73791,-0.85098 2.00063,-1.64139 0.61203,-1.84135 -5.78525,-0.83302 -8.30479,-1.7414 -11.63499,-4.19494 -1.66621,-1.22757 -2.44762,-1.41329 -2.60076,-0.61813 -0.0564,0.29376 0.84645,1.11904 2.8113,2.56963 2.05774,1.51914 2.86046,2.26091 2.77652,2.56568 -0.512,1.85874 -1.54226,6.68771 -1.92822,9.03796 l -0.46913,2.85651 -1.16509,0.34524 c -1.77696,0.52652 -9.82455,2.10183 -11.73979,2.29806 -1.25387,0.12854 -1.94576,0.07 -2.64971,-0.22409 -0.93024,-0.38868 -0.95727,-0.44012 -1.14305,-2.17501 -0.40144,-3.74859 0.36361,-17.0071 1.26527,-21.92697 l 0.31395,-1.71316 1.95738,-0.71467 c 6.01555,-2.19637 9.8231,-5.5844 11.52834,-10.25814 l 0.54816,-1.5024 2.19402,1.19597 c 10.01327,5.45823 16.87357,11.78431 20.81567,19.19468 l 1.18485,2.22729 -0.80314,2.59018 c -1.4972,4.82876 -3.84609,9.70995 -6.83509,14.20398 -1.99856,3.0049 -2.15139,3.13406 -3.68903,3.11778 -0.72858,-0.009 -2.0027,-0.23057 -2.83136,-0.4956 z m -41.27784,-6.66481 c -1.42609,-0.64311 -2.68267,-1.25911 -2.79237,-1.36891 -0.90499,-0.90564 -1.21484,-18.22937 -0.38374,-21.45344 0.37138,-1.44063 0.38096,-1.73205 0.0675,-2.04563 -0.31361,-0.31361 -0.51117,-0.21886 -1.38699,0.66585 -0.5617,0.56736 -1.39548,1.22504 -1.8528,1.46153 -1.25454,0.64874 -4.14583,1.62179 -6.19565,2.08512 -3.71752,0.84029 -5.06198,0.99965 -9.60422,1.13849 l -4.64553,0.1421 1.65795,-2.44959 c 2.79224,-4.12555 3.56268,-8.02712 2.30638,-11.67975 -0.31432,-0.9139 -0.52442,-1.70872 -0.46687,-1.76624 0.0576,-0.0576 0.9454,0.0721 1.97304,0.28852 5.69364,1.19771 15.75749,1.56523 21.56749,0.78767 1.57895,-0.21146 2.98826,-0.38546 3.13181,-0.38697 0.15752,-0.002 0.22657,0.72004 0.17447,1.82012 -0.0724,1.52956 0.0247,2.06511 0.60087,3.32813 0.37804,0.8279 1.10572,1.93507 1.61711,2.46039 0.51135,0.52531 0.863,1.06315 0.78141,1.19514 -0.58043,0.9392 -1.99946,19.49747 -1.99946,26.14961 0,0.75053 -0.0604,0.79979 -0.97869,0.79862 -0.59726,-7.7e-4 -1.98922,-0.45698 -3.57159,-1.17055 z"
         id="path878" />
      <path
         style="fill:#636258;stroke-width:0.260984"
         d="m 204.60684,259.35292 c 0.1794,-0.0724 0.47304,-0.0724 0.65247,0 0.1794,0.0724 0.0327,0.13162 -0.32625,0.13162 -0.35884,0 -0.50565,-0.0592 -0.32622,-0.13162 z m 2.10417,-0.006 c 0.18834,-0.0755 0.41351,-0.066 0.50023,0.0216 0.0866,0.0866 -0.0675,0.14827 -0.34253,0.13717 -0.30394,-0.0123 -0.36589,-0.0743 -0.15782,-0.15782 z m 0.26109,-1.30491 c 0.18834,-0.0755 0.41351,-0.066 0.50022,0.0216 0.0866,0.0866 -0.0675,0.14858 -0.34252,0.13717 -0.30394,-0.0123 -0.3659,-0.0743 -0.15752,-0.15782 z m -54.54572,-2.34886 c 0.18834,-0.0755 0.41348,-0.066 0.50022,0.0216 0.0866,0.0866 -0.0675,0.14858 -0.34256,0.13717 -0.30393,-0.0123 -0.36586,-0.0743 -0.15782,-0.15782 z m 2.59351,0.006 c 0.1794,-0.0724 0.47304,-0.0724 0.65247,0 0.1794,0.0724 0.0327,0.13162 -0.32622,0.13162 -0.35886,0 -0.50565,-0.0592 -0.32625,-0.13162 z m 55.97646,-0.87108 c 0,-0.50239 0.0536,-0.70793 0.11929,-0.45673 0.0657,0.25122 0.0657,0.66224 0,0.91346 -0.0657,0.25123 -0.11929,0.0456 -0.11929,-0.45673 z m -59.09193,-0.43926 c 0.18834,-0.0755 0.41348,-0.0663 0.50022,0.0216 0.0866,0.0866 -0.0675,0.14827 -0.34255,0.13717 -0.30394,-0.0123 -0.36586,-0.0743 -0.15783,-0.15782 z m 3.77291,-0.003 c 0.25399,-0.0663 0.60626,-0.0619 0.78295,0.009 0.17663,0.0715 -0.0311,0.12577 -0.4617,0.12022 -0.43059,-0.006 -0.57519,-0.0638 -0.32125,-0.13008 z m 1.96872,-0.25831 c 0.18834,-0.0755 0.41352,-0.0663 0.50023,0.0216 0.0866,0.0866 -0.0675,0.14827 -0.34253,0.13717 -0.30393,-0.0123 -0.36589,-0.0743 -0.15782,-0.15782 z m 52.00544,-0.23488 c 0.0123,-0.30394 0.0743,-0.36587 0.15782,-0.15783 0.0755,0.18834 0.066,0.41349 -0.0216,0.5002 -0.0866,0.0866 -0.14858,-0.0675 -0.13717,-0.34253 z m -38.12433,-0.99022 c 0,-0.0543 0.2056,-0.25955 0.45674,-0.45671 0.41391,-0.32464 0.42316,-0.3154 0.0986,0.0986 -0.34096,0.43473 -0.55525,0.57298 -0.55525,0.35816 z m -3.49409,-0.37619 c -0.0728,-0.11745 0.21392,-0.16307 0.63705,-0.1008 0.42305,0.0623 0.76918,0.15813 0.76918,0.21362 0,0.19882 -1.27692,0.0965 -1.40623,-0.11282 z m -17.77612,-0.56918 c 0.25985,-0.28698 0.53108,-0.52199 0.60287,-0.52199 0.0718,0 -0.082,0.23488 -0.34188,0.52199 -0.25985,0.28698 -0.53111,0.52195 -0.60287,0.52195 -0.0718,0 0.082,-0.23488 0.34188,-0.52195 z m 47.62962,0 c 0,-0.28698 0.10635,-0.52199 0.23643,-0.52199 0.13008,0 0.17509,0.23488 0.10018,0.52199 -0.0749,0.28698 -0.18156,0.52195 -0.23643,0.52195 -0.0549,0 -0.10018,-0.23488 -0.10018,-0.52195 z m 1.51699,-0.17817 c 0.18834,-0.0755 0.41348,-0.066 0.50023,0.0216 0.0866,0.0866 -0.0675,0.14826 -0.34256,0.13717 -0.30393,-0.0123 -0.36586,-0.0743 -0.15782,-0.15783 z m 3.39281,0 c 0.18834,-0.0755 0.41348,-0.066 0.50019,0.0216 0.0866,0.0866 -0.0675,0.14826 -0.34252,0.13717 -0.30394,-0.0123 -0.36587,-0.0743 -0.15783,-0.15783 z m -2.34886,-1.30491 c 0.18834,-0.0755 0.41348,-0.0663 0.50019,0.0216 0.0866,0.0866 -0.0675,0.14827 -0.34252,0.13717 -0.30394,-0.0123 -0.36586,-0.0743 -0.15783,-0.15782 z m 1.02761,0.006 c 0.1794,-0.0724 0.47304,-0.0724 0.65247,0 0.1794,0.0724 0.0327,0.13162 -0.32622,0.13162 -0.35887,0 -0.50568,-0.0592 -0.32625,-0.13162 z m -35.23289,-0.26109 c 0.1794,-0.0724 0.47304,-0.0724 0.65247,0 0.1794,0.0724 0.0327,0.13163 -0.32625,0.13163 -0.35883,0 -0.50565,-0.0592 -0.32622,-0.13163 z m 3.14812,-0.52741 c 0.18834,-0.0755 0.41351,-0.066 0.50022,0.0216 0.0866,0.0866 -0.0675,0.14857 -0.34252,0.13717 -0.30394,-0.0123 -0.36589,-0.0743 -0.15783,-0.15783 z m 2.30342,-0.21331 c -0.0826,-0.21547 -0.0364,-0.39148 0.10265,-0.39148 0.13902,0 0.25276,0.17601 0.25276,0.39148 0,0.21547 -0.0462,0.39148 -0.10264,0.39148 -0.0564,0 -0.17016,-0.17632 -0.25277,-0.39148 z m -8.18691,-0.57233 c 0.25399,-0.0663 0.60626,-0.0619 0.78295,0.009 0.17663,0.0715 -0.0311,0.12577 -0.4617,0.12022 -0.43062,-0.006 -0.57519,-0.0638 -0.32125,-0.13008 z m -6.38277,-0.25831 c 0.18834,-0.0755 0.41349,-0.066 0.50023,0.0216 0.0866,0.0866 -0.0675,0.14827 -0.34256,0.13717 -0.30393,-0.0123 -0.36586,-0.0743 -0.15782,-0.15782 z m 17.03352,-1.0179 c 0.0123,-0.30393 0.0743,-0.36586 0.15782,-0.15782 0.0755,0.18834 0.066,0.41348 -0.0216,0.50019 -0.0866,0.0866 -0.14826,-0.0675 -0.13717,-0.34252 z m 34.44993,-1.04395 c 0.0123,-0.30393 0.0743,-0.36586 0.15783,-0.15751 0.0755,0.18834 0.0663,0.41348 -0.0216,0.50023 -0.0866,0.0866 -0.14827,-0.0675 -0.13717,-0.34256 z m 1.32554,-0.63071 c 0,-0.35883 0.0592,-0.50565 0.13162,-0.32622 0.0724,0.17941 0.0724,0.47304 0,0.65248 -0.0724,0.1794 -0.13162,0.0327 -0.13162,-0.32626 z m -36.7988,-1.04391 c 0,-0.35887 0.0592,-0.50568 0.13162,-0.32625 0.0724,0.1794 0.0724,0.47304 0,0.65247 -0.0724,0.1794 -0.13162,0.0327 -0.13162,-0.32622 z m 1.30491,-0.78296 c 0,-0.35886 0.0592,-0.50568 0.13163,-0.32625 0.0724,0.1794 0.0724,0.47304 0,0.65248 -0.0724,0.1794 -0.13163,0.0327 -0.13163,-0.32623 z m -17.4666,-1.5659 c 0,-0.50242 0.0536,-0.70793 0.11929,-0.45673 0.0657,0.25122 0.0657,0.66224 0,0.91343 -0.0657,0.25122 -0.11929,0.0456 -0.11929,-0.4567 z m 52.97016,0.13039 c 0.006,-0.43063 0.0638,-0.57519 0.13009,-0.32126 0.0663,0.254 0.0616,0.60623 -0.009,0.78295 -0.0715,0.17663 -0.12577,-0.0311 -0.12022,-0.46169 z m -1.33521,-0.80472 c 0.0123,-0.30393 0.0743,-0.36586 0.15783,-0.15751 0.0755,0.18834 0.0663,0.41348 -0.0216,0.50022 -0.0866,0.0866 -0.14827,-0.0675 -0.13717,-0.34255 z m -50.34937,-0.36971 c 0,-0.35887 0.0592,-0.50565 0.13163,-0.32622 0.0724,0.1794 0.0724,0.47301 0,0.65244 -0.0724,0.1794 -0.13163,0.0327 -0.13163,-0.32622 z m 15.13711,-0.26109 c 0,-0.35883 0.0592,-0.50565 0.13162,-0.32622 0.0724,0.1794 0.0724,0.47304 0,0.65247 -0.0724,0.1794 -0.13162,0.0327 -0.13162,-0.32625 z m 1.30491,-0.78295 c 0,-0.35883 0.0592,-0.50565 0.13162,-0.32622 0.0724,0.1794 0.0724,0.47304 0,0.65247 -0.0724,0.1794 -0.13162,0.0327 -0.13162,-0.32625 z m -17.47629,-2.21835 c 0.006,-0.43062 0.0638,-0.57522 0.13009,-0.32129 0.0663,0.254 0.0619,0.60627 -0.009,0.78296 -0.0715,0.17662 -0.12577,-0.0311 -0.12022,-0.46167 z m 17.71666,-0.0216 c 0.0123,-0.30393 0.0743,-0.36586 0.15782,-0.15782 0.0755,0.18834 0.066,0.41349 -0.0216,0.50023 -0.0866,0.0866 -0.14827,-0.0675 -0.13717,-0.34256 z m -16.42139,-0.8917 c 0,-0.35883 0.0592,-0.50565 0.13162,-0.32622 0.0724,0.1794 0.0724,0.47304 0,0.65247 -0.0724,0.1794 -0.13162,0.0327 -0.13162,-0.32625 z m -1.03427,-3.26229 c 0.006,-0.43063 0.0638,-0.5752 0.13008,-0.32126 0.0663,0.254 0.0616,0.60623 -0.009,0.78295 -0.0715,0.17663 -0.12576,-0.0311 -0.12021,-0.46169 z m 1.30491,-0.78296 c 0.006,-0.43062 0.0638,-0.57519 0.13008,-0.32125 0.0663,0.25399 0.0616,0.60623 -0.009,0.78295 -0.0715,0.17663 -0.12576,-0.0311 -0.12021,-0.4617 z m -1.04395,-3.3928 c 0.006,-0.43063 0.0638,-0.5752 0.13008,-0.32126 0.0663,0.254 0.0616,0.60626 -0.009,0.78295 -0.0715,0.17663 -0.12577,-0.0311 -0.12022,-0.46169 z m 1.29527,-0.65244 c 0,-0.35887 0.0592,-0.50569 0.13162,-0.32625 0.0724,0.1794 0.0724,0.47303 0,0.65247 -0.0724,0.1794 -0.13162,0.0327 -0.13162,-0.32622 z m -1.03427,-3.52329 c 0.006,-0.43063 0.0638,-0.57523 0.13008,-0.32129 0.0663,0.254 0.0616,0.60626 -0.009,0.78295 -0.0715,0.17663 -0.12576,-0.0311 -0.12022,-0.46166 z m 1.29526,-0.65247 c 0,-0.35887 0.0592,-0.50566 0.13162,-0.32622 0.0724,0.1794 0.0724,0.473 0,0.65244 -0.0724,0.1794 -0.13162,0.0327 -0.13162,-0.32622 z m -1.03427,-3.52329 c 0.006,-0.43063 0.0638,-0.5752 0.13008,-0.32126 0.0663,0.254 0.0616,0.60623 -0.009,0.78295 -0.0715,0.17663 -0.12577,-0.0311 -0.12022,-0.46169 z m 1.29523,-0.65247 c 0,-0.35884 0.0592,-0.50566 0.13163,-0.32622 0.0724,0.1794 0.0724,0.47304 0,0.65247 -0.0724,0.1794 -0.13163,0.0327 -0.13163,-0.32625 z m 18.55451,-2.47934 c 0.003,-0.57418 0.0564,-0.77833 0.11868,-0.45369 0.0626,0.32465 0.0601,0.79442 -0.006,1.04395 -0.0653,0.24938 -0.11651,-0.0154 -0.11343,-0.59026 z m -19.58877,-1.04395 c 0.006,-0.43063 0.0638,-0.5752 0.13008,-0.32126 0.0663,0.254 0.0617,0.60627 -0.009,0.78295 -0.0715,0.17663 -0.12577,-0.0311 -0.12022,-0.46169 z m 1.29526,-0.65244 c 0,-0.35887 0.0592,-0.50569 0.13162,-0.32625 0.0724,0.1794 0.0724,0.47304 0,0.65247 -0.0724,0.1794 -0.13162,0.0327 -0.13162,-0.32622 z m -1.01932,-4.04528 c 0.003,-0.57415 0.0564,-0.77833 0.11868,-0.45368 0.0623,0.32465 0.0601,0.79442 -0.006,1.04395 -0.0653,0.24968 -0.11652,-0.0154 -0.11343,-0.59027 z m 1.28996,-1.04392 c 0.006,-0.43062 0.0638,-0.57519 0.13008,-0.32129 0.0663,0.254 0.0617,0.60627 -0.009,0.78296 -0.0715,0.17662 -0.12577,-0.0311 -0.12022,-0.46167 z m -1.00917,-5.74166 c 10e-4,-1.0048 0.0484,-1.38386 0.1048,-0.84239 0.0564,0.54147 0.0555,1.36357 -0.002,1.8269 -0.0576,0.4633 -0.10388,0.0216 -0.10264,-0.98451 z m 1.30281,-2.47934 c 0,-0.93304 0.0475,-1.31472 0.10542,-0.84821 0.058,0.4665 0.058,1.22988 0,1.69638 -0.0579,0.46651 -0.10542,0.0848 -0.10542,-0.84817 z m 41.36406,0.86565 c 0.18834,-0.0755 0.41348,-0.0663 0.50023,0.0216 0.0866,0.0866 -0.0675,0.14827 -0.34256,0.13717 -0.30394,-0.0123 -0.36586,-0.0743 -0.15752,-0.15752 z m 3.91476,-0.26109 c 0.18834,-0.0755 0.41349,-0.0663 0.50023,0.0216 0.0866,0.0866 -0.0675,0.14827 -0.34256,0.13717 -0.30393,-0.0123 -0.36586,-0.0743 -0.15782,-0.15751 z m -29.11109,-0.26355 c 0.254,-0.0663 0.60624,-0.062 0.78296,0.009 0.17662,0.0715 -0.0311,0.12576 -0.4617,0.12022 -0.43062,-0.006 -0.57519,-0.0638 -0.32126,-0.13009 z m 2.73535,-0.003 c 0.32298,-0.0623 0.85147,-0.0623 1.17443,0 0.32298,0.0623 0.0586,0.11313 -0.58722,0.11313 -0.64593,0 -0.91017,-0.0509 -0.58721,-0.11313 z m 20.49087,-0.78604 c 0.39671,-0.0601 0.98393,-0.0583 1.30494,0.003 0.32098,0.0619 -0.003,0.11097 -0.72131,0.10912 -0.71772,-0.002 -0.98035,-0.0527 -0.58363,-0.11251 z m 3.13181,0 c 0.39671,-0.0601 0.98393,-0.0583 1.30494,0.003 0.32098,0.0619 -0.003,0.11097 -0.7213,0.10912 -0.7177,-0.002 -0.98036,-0.0527 -0.58364,-0.11251 z M 159.071,201.58831 c 0,-0.64594 0.0509,-0.9102 0.11312,-0.58722 0.0623,0.32296 0.0623,0.85145 0,1.17443 -0.0623,0.32296 -0.11312,0.0589 -0.11312,-0.58721 z m 17.08862,0.85974 c 0.32299,-0.0623 0.85148,-0.0623 1.17443,0 0.32299,0.0623 0.0586,0.11312 -0.58721,0.11312 -0.64594,0 -0.91017,-0.0509 -0.58722,-0.11312 z m 3.12602,-0.003 c 0.4633,-0.0576 1.2854,-0.0586 1.82687,-0.002 0.5415,0.0564 0.16245,0.10357 -0.84238,0.1048 -1.00477,10e-4 -1.44782,-0.045 -0.98449,-0.10264 z m -6.24149,-0.25091 c 0.18834,-0.0755 0.41349,-0.0663 0.5002,0.0216 0.0866,0.0866 -0.0675,0.14826 -0.34253,0.13717 -0.30393,-0.0123 -0.36586,-0.0743 -0.15782,-0.15752 z m 10.43935,0 c 0.18834,-0.0755 0.41352,-0.0663 0.50023,0.0216 0.0866,0.0866 -0.0675,0.14826 -0.34253,0.13717 -0.30393,-0.0123 -0.36589,-0.0743 -0.15751,-0.15752 z m 1.8106,-0.25554 c 0.1794,-0.0724 0.47304,-0.0724 0.65244,0 0.1794,0.0724 0.0327,0.13162 -0.32622,0.13162 -0.35887,0 -0.50565,-0.0592 -0.32622,-0.13162 z m -15.64276,-0.26633 c 0.18834,-0.0755 0.41349,-0.0663 0.50023,0.0216 0.0866,0.0866 -0.0675,0.14827 -0.34256,0.13717 -0.30393,-0.0123 -0.36586,-0.0743 -0.15782,-0.15751 z m -9.50979,-2.81444 c -0.0808,-0.21053 -0.0863,-0.53354 -0.0123,-0.71769 0.074,-0.18403 0.14364,-0.0805 0.15504,0.23057 0.0123,0.31099 0.16738,0.6247 0.34685,0.6971 0.25554,0.10296 0.25369,0.13594 -0.009,0.15228 -0.18403,0.0123 -0.40054,-0.15166 -0.48136,-0.36226 z m 43.7889,-0.40007 c 0,-0.35887 0.0592,-0.50565 0.13162,-0.32622 0.0724,0.1794 0.0724,0.47301 0,0.65244 -0.0724,0.1794 -0.13162,0.0327 -0.13162,-0.32622 z m -9.91743,-0.26109 c 0,-0.35883 0.0592,-0.50565 0.13162,-0.32622 0.0724,0.1794 0.0724,0.47304 0,0.65247 -0.0724,0.1794 -0.13162,0.0327 -0.13162,-0.32625 z m 1.56591,-0.78295 c 0,-0.35884 0.0592,-0.50565 0.13162,-0.32622 0.0724,0.1794 0.0724,0.47304 0,0.65247 -0.0724,0.1794 -0.13162,0.0327 -0.13162,-0.32625 z m -37.08038,-0.15228 c 0.0123,-0.30393 0.0743,-0.36586 0.15782,-0.15751 0.0755,0.18834 0.0663,0.41348 -0.0216,0.50022 -0.0866,0.0866 -0.14827,-0.0675 -0.13717,-0.34255 z m 1.32553,-1.15266 c 0,-0.35887 0.0592,-0.50566 0.13162,-0.32622 0.0724,0.1794 0.0724,0.473 0,0.65244 -0.0724,0.1794 -0.13162,0.0327 -0.13162,-0.32622 z m 33.9473,-0.26109 c 0,-0.50239 0.0536,-0.70793 0.1193,-0.4567 0.0657,0.25122 0.0657,0.66224 0,0.91343 -0.0657,0.25122 -0.1193,0.0456 -0.1193,-0.45673 z m 9.85686,0.42344 c 0,-0.0542 0.2056,-0.25985 0.45673,-0.45673 0.41392,-0.32462 0.42317,-0.3154 0.0986,0.0986 -0.34095,0.43472 -0.55528,0.57297 -0.55528,0.35818 z m 1.30494,0 c 0,-0.0542 0.2056,-0.25985 0.4567,-0.45673 0.41395,-0.32462 0.42317,-0.3154 0.0986,0.0986 -0.34092,0.43472 -0.55525,0.57297 -0.55525,0.35818 z m 1.67157,-0.48867 -0.49714,-0.58721 0.58722,0.49714 c 0.32295,0.27342 0.58721,0.53771 0.58721,0.58722 0,0.20899 -0.20992,0.0546 -0.67729,-0.49715 z m -11.00647,-0.97869 c 0,-0.50241 0.0536,-0.70792 0.1193,-0.45673 0.0657,0.25122 0.0657,0.66224 0,0.91343 -0.0657,0.25123 -0.1193,0.0456 -0.1193,-0.4567 z m -36.0352,-0.78295 c 0,-0.35887 0.0592,-0.50568 0.13163,-0.32625 0.0724,0.1794 0.0724,0.47304 0,0.65247 -0.0724,0.1794 -0.13163,0.0327 -0.13163,-0.32622 z m 44.2772,0.34367 c 0.18834,-0.0755 0.41352,-0.0663 0.50023,0.0216 0.0866,0.0866 -0.0675,0.14858 -0.34253,0.13717 -0.30393,-0.0123 -0.36589,-0.0743 -0.15782,-0.15782 z m 2.65881,-0.79082 c 0.21546,-0.0798 0.56764,-0.27588 0.78295,-0.43611 0.34015,-0.25307 0.34453,-0.23149 0.0333,0.16553 -0.19697,0.25122 -0.54936,0.44746 -0.78295,0.43611 -0.35532,-0.0185 -0.36078,-0.0444 -0.0333,-0.16553 z m -48.5225,-1.271 c 0.0123,-0.30394 0.0743,-0.36589 0.15782,-0.15783 0.0755,0.18834 0.0663,0.41352 -0.0216,0.50023 -0.0866,0.0866 -0.14826,-0.0675 -0.13717,-0.34253 z m 1.30491,-0.52199 c 0.0123,-0.30394 0.0743,-0.36586 0.15751,-0.15783 0.0755,0.18835 0.0663,0.41349 -0.0216,0.50023 -0.0866,0.0866 -0.14827,-0.0675 -0.13717,-0.34256 z m 21.57584,-1.06454 c 0.1794,-0.0724 0.47304,-0.0724 0.65247,0 0.17941,0.0724 0.0327,0.13162 -0.32622,0.13162 -0.35886,0 -0.50565,-0.0592 -0.32625,-0.13162 z m 2.1042,-0.26633 c 0.18835,-0.0755 0.41349,-0.0663 0.50023,0.0216 0.0866,0.0866 -0.0675,0.14827 -0.34256,0.13717 -0.30393,-0.0123 -0.36586,-0.0743 -0.15782,-0.15751 z m 1.56591,-0.26108 c 0.18834,-0.0755 0.41349,-0.0663 0.50023,0.0216 0.0866,0.0866 -0.0675,0.14827 -0.34256,0.13717 -0.30393,-0.0123 -0.36586,-0.0743 -0.15751,-0.15782 z m -25.50691,-0.49595 c 0.0123,-0.30393 0.0743,-0.36586 0.15782,-0.15782 0.0755,0.18834 0.066,0.41348 -0.0216,0.50023 -0.0866,0.0866 -0.14827,-0.0675 -0.13717,-0.34256 z m 26.81182,0.23489 c 0.18834,-0.0755 0.41352,-0.0663 0.50023,0.0216 0.0866,0.0866 -0.0675,0.14826 -0.34253,0.13717 -0.30393,-0.0123 -0.36589,-0.0743 -0.15751,-0.15783 z m 12.11478,-1.12665 c 0,-0.50239 0.0536,-0.70793 0.1193,-0.4567 0.0657,0.25122 0.0657,0.66224 0,0.91343 -0.0657,0.25122 -0.1193,0.0456 -0.1193,-0.45673 z m -33.00677,0.0764 c 0.32462,-0.0626 0.79439,-0.0601 1.04392,0.006 0.24968,0.0653 -0.0154,0.11652 -0.59027,0.11343 -0.57415,-0.003 -0.7783,-0.0564 -0.45365,-0.11867 z m 10.83718,-1.25084 c 0.002,-0.7177 0.0527,-0.98033 0.11251,-0.58361 0.0601,0.39669 0.0583,0.9839 -0.003,1.30491 -0.062,0.32098 -0.11097,-0.003 -0.10912,-0.7213 z m 17.4113,0.91347 c -0.33454,-0.21609 -0.32504,-0.25369 0.0653,-0.25708 0.25123,-0.002 0.45674,0.11343 0.45674,0.25708 0,0.31829 -0.0308,0.31829 -0.52196,0 z m -16.13012,-0.65248 c 0.006,-0.43062 0.0638,-0.57519 0.13008,-0.32125 0.0663,0.25399 0.0617,0.60623 -0.009,0.78295 -0.0715,0.17663 -0.12577,-0.0311 -0.12022,-0.4617 z m -18.29919,-0.28266 c 0.0123,-0.30393 0.0743,-0.36589 0.15782,-0.15782 0.0755,0.18834 0.066,0.41351 -0.0216,0.50022 -0.0866,0.0866 -0.14827,-0.0675 -0.13717,-0.34252 z m 6.17778,-0.0216 c 0.1794,-0.0724 0.47304,-0.0724 0.65244,0 0.1794,0.0724 0.0327,0.13162 -0.32622,0.13162 -0.35887,0 -0.50565,-0.0592 -0.32622,-0.13162 z m 33.23087,-2.06727 c 0.0123,-0.30394 0.0743,-0.36586 0.15751,-0.15752 0.0755,0.18834 0.0663,0.41349 -0.0216,0.5002 -0.0866,0.0866 -0.14827,-0.0675 -0.13717,-0.34253 z m -30.73855,-1.41366 c 0,-0.78946 0.049,-1.11244 0.10881,-0.7177 0.0598,0.39474 0.0598,1.04068 0,1.43542 -0.0598,0.39472 -0.10881,0.0718 -0.10881,-0.71772 z m -1.32261,0.26108 c 0,-0.50238 0.0536,-0.70792 0.11929,-0.45673 0.0657,0.25122 0.0657,0.66224 0,0.91347 -0.0656,0.25122 -0.11929,0.0456 -0.11929,-0.45674 z m -9.17439,-0.93519 c 0.0123,-0.30394 0.0743,-0.36586 0.15752,-0.15752 0.0755,0.18834 0.0663,0.41349 -0.0216,0.50023 -0.0866,0.0866 -0.14827,-0.0675 -0.13717,-0.34256 z m -0.26109,-2.34886 c 0.0123,-0.30394 0.0743,-0.36586 0.15783,-0.15752 0.0755,0.18834 0.066,0.41349 -0.0216,0.50023 -0.0866,0.0866 -0.14827,-0.0675 -0.13717,-0.34256 z m 11.02161,-2.84909 c 0.002,-0.86125 0.0502,-1.1821 0.10819,-0.71301 0.0579,0.46906 0.057,1.17372 -0.003,1.56591 -0.0595,0.39215 -0.10696,0.009 -0.10573,-0.8529 z m -1.32523,0.13039 c 0,-0.50242 0.0536,-0.70792 0.1193,-0.45673 0.0656,0.25122 0.0656,0.66224 0,0.91343 -0.0657,0.25123 -0.1193,0.0456 -0.1193,-0.4567 z m 9.40953,-0.65247 c 0.002,-0.7177 0.0527,-0.98036 0.11251,-0.58364 0.0601,0.39672 0.0583,0.98393 -0.003,1.30494 -0.062,0.32098 -0.11097,-0.003 -0.10912,-0.7213 z m -18.02201,0.13039 c 0,-0.50239 0.0536,-0.70793 0.11929,-0.4567 0.0657,0.25122 0.0657,0.66224 0,0.91343 -0.0657,0.25122 -0.11929,0.0456 -0.11929,-0.45673 z m -1.25985,-4.30624 c 2.8e-4,-2.29665 0.0404,-3.20126 0.0888,-2.01022 0.0484,1.19101 0.0481,3.0701 -5.2e-4,4.17573 -0.0487,1.10563 -0.0885,0.13101 -0.0882,-2.16551 z m 20.53273,3.63204 c 0.0123,-0.30394 0.0743,-0.36587 0.15783,-0.15752 0.0755,0.18834 0.066,0.41349 -0.0216,0.50023 -0.0866,0.0866 -0.14827,-0.0675 -0.13717,-0.34256 z m -1.004,-3.24057 c 0,-0.50238 0.0536,-0.70792 0.1193,-0.4567 0.0657,0.25122 0.0657,0.66224 0,0.91344 -0.0657,0.25122 -0.1193,0.0456 -0.1193,-0.45674 z m 28.33782,0.6047 c 0.18834,-0.0755 0.41352,-0.0663 0.50023,0.0216 0.0866,0.0866 -0.0675,0.14827 -0.34253,0.13717 -0.30393,-0.0123 -0.36589,-0.0743 -0.15782,-0.15751 z m -27.07282,-0.75694 c 0.0123,-0.30393 0.0743,-0.36586 0.15782,-0.15782 0.0755,0.18834 0.066,0.41348 -0.0216,0.50022 -0.0866,0.0866 -0.14826,-0.0675 -0.13717,-0.34256 z m -10.67976,-0.63071 c 0,-0.35883 0.0592,-0.50565 0.13162,-0.32622 0.0724,0.1794 0.0724,0.47304 0,0.65247 -0.0724,0.1794 -0.13162,0.0327 -0.13162,-0.32625 z m 1.32427,-0.26109 c 0,-0.50241 0.0536,-0.70792 0.11929,-0.45673 0.0657,0.25122 0.0657,0.66224 0,0.91344 -0.0657,0.25122 -0.11929,0.0456 -0.11929,-0.45671 z m 8.34181,-2.21837 c 0.006,-0.43063 0.0638,-0.5752 0.13008,-0.32126 0.0663,0.254 0.0616,0.60623 -0.009,0.78295 -0.0715,0.17663 -0.12576,-0.0311 -0.12021,-0.46169 z m 1.29526,-0.13039 c 0,-0.35887 0.0592,-0.50569 0.13163,-0.32625 0.0724,0.1794 0.0724,0.47303 0,0.65247 -0.0724,0.1794 -0.13163,0.0327 -0.13163,-0.32622 z m -9.37608,-1.04395 c 0,-0.50239 0.0536,-0.70793 0.1193,-0.45673 0.0657,0.25122 0.0657,0.66224 0,0.91346 -0.0657,0.25122 -0.1193,0.0456 -0.1193,-0.45673 z m -10.43411,-0.39148 c 0.003,-0.57417 0.0564,-0.77833 0.11868,-0.45368 0.0626,0.32465 0.0601,0.79442 -0.006,1.04395 -0.0653,0.24968 -0.11652,-0.0154 -0.11343,-0.59027 z m 9.08922,0.50023 c 0.0123,-0.30393 0.0743,-0.36589 0.15752,-0.15782 0.0755,0.18834 0.0663,0.41351 -0.0216,0.50022 -0.0866,0.0866 -0.14827,-0.0675 -0.13717,-0.34252 z m 9.65643,-1.30494 c 0.0123,-0.30394 0.0743,-0.36586 0.15783,-0.15783 0.0755,0.18834 0.066,0.41349 -0.0216,0.50023 -0.0866,0.0866 -0.14827,-0.0675 -0.13717,-0.34256 z m -43.13196,-0.28698 c 0.18834,-0.0755 0.41349,-0.0663 0.50023,0.0216 0.0866,0.0866 -0.0675,0.14827 -0.34256,0.13718 -0.30393,-0.0123 -0.36586,-0.0743 -0.15751,-0.15752 z m 8.20967,-0.003 c 0.254,-0.0663 0.60626,-0.0617 0.78295,0.009 0.17663,0.0715 -0.0311,0.12577 -0.46169,0.12022 -0.43063,-0.006 -0.5752,-0.0638 -0.32126,-0.13008 z m -12.40173,-0.51392 c 0.1794,-0.0724 0.47304,-0.0724 0.65247,0 0.1794,0.0724 0.0327,0.13163 -0.32625,0.13163 -0.35883,0 -0.50565,-0.0592 -0.32622,-0.13163 z m 8.87348,-0.52196 c 0.1794,-0.0724 0.47304,-0.0724 0.65247,0 0.1794,0.0724 0.0327,0.13163 -0.32625,0.13163 -0.35884,0 -0.50566,-0.0592 -0.32622,-0.13163 z m -5.72536,-0.26632 c 0.18834,-0.0755 0.41351,-0.0663 0.50022,0.0216 0.0866,0.0866 -0.0675,0.14826 -0.34252,0.13717 -0.30394,-0.0123 -0.36589,-0.0743 -0.15752,-0.15783 z m 10.16208,0.006 c 0.1794,-0.0724 0.47304,-0.0724 0.65247,0 0.1794,0.0724 0.0327,0.13163 -0.32625,0.13163 -0.35883,0 -0.50565,-0.0592 -0.32622,-0.13163 z m 25.96325,-0.61012 c 0,-0.50238 0.0536,-0.70792 0.11929,-0.4567 0.0657,0.25123 0.0657,0.66225 0,0.91344 -0.0657,0.25122 -0.11929,0.0456 -0.11929,-0.45674 z m -37.90328,0.24568 c 0,-0.15197 0.11744,-0.20375 0.26108,-0.11498 0.14365,0.0888 0.26109,0.213 0.26109,0.2765 0,0.0632 -0.11744,0.11498 -0.26109,0.11498 -0.14364,0 -0.26108,-0.12423 -0.26108,-0.2765 z m 36.55842,-0.13686 c 0.0123,-0.30394 0.0743,-0.36586 0.15782,-0.15783 0.0755,0.18834 0.066,0.41349 -0.0216,0.50023 -0.0866,0.0866 -0.14826,-0.0675 -0.13717,-0.34256 z m 9.65643,0 c 0.0123,-0.30394 0.0743,-0.36586 0.15782,-0.15783 0.0755,0.18834 0.066,0.41349 -0.0216,0.50023 -0.0866,0.0866 -0.14827,-0.0675 -0.13718,-0.34256 z m -43.08304,-0.46826 c 0,-0.0543 0.2056,-0.25986 0.45673,-0.45674 0.41395,-0.32461 0.42317,-0.3154 0.0986,0.0986 -0.34095,0.43473 -0.55525,0.57298 -0.55525,0.35819 z m -10.70035,-0.68441 c 0,-0.14364 0.12422,-0.26109 0.2765,-0.26109 0.15197,0 0.20375,0.11745 0.11498,0.26109 -0.0888,0.14364 -0.213,0.26109 -0.2765,0.26109 -0.0632,0 -0.11498,-0.11745 -0.11498,-0.26109 z m -1.69639,-0.39252 -0.78298,-0.36901 0.78298,0.15351 c 0.43063,0.0845 0.89451,0.25584 1.03088,0.38075 0.37196,0.34101 -0.12607,0.26108 -1.03088,-0.16522 z m 11.09183,0.29406 c 0,-0.0542 0.2056,-0.25985 0.45673,-0.45673 0.41392,-0.32462 0.42316,-0.3154 0.0986,0.0986 -0.34096,0.43473 -0.55528,0.57298 -0.55528,0.35819 z m 44.64891,-0.31469 c 0.0123,-0.30393 0.0743,-0.36586 0.15783,-0.15782 0.0755,0.18834 0.066,0.41349 -0.0216,0.50023 -0.0866,0.0866 -0.14827,-0.0675 -0.13717,-0.34256 z m -58.88898,-0.69596 -0.76652,-0.84818 0.84818,0.76652 c 0.4665,0.4216 0.8482,0.80327 0.8482,0.84821 0,0.2016 -0.21546,0.0247 -0.92986,-0.76655 z m 38.5322,0.43497 c 0.0123,-0.30394 0.0743,-0.36586 0.15783,-0.15783 0.0755,0.18835 0.066,0.41349 -0.0216,0.50023 -0.0866,0.0866 -0.14827,-0.0675 -0.13717,-0.34256 z m -25.07509,-0.5002 c 0.33714,-0.35886 0.67168,-0.65247 0.74344,-0.65247 0.0718,0 -0.14549,0.29376 -0.48244,0.65247 -0.33713,0.35884 -0.67168,0.65244 -0.74347,0.65244 -0.0718,0 0.1455,-0.29376 0.48247,-0.65244 z m 37.10097,-0.13039 c 0,-0.35883 0.0592,-0.50565 0.13163,-0.32622 0.0724,0.1794 0.0724,0.47304 0,0.65247 -0.0724,0.17941 -0.13163,0.0327 -0.13163,-0.32625 z m -43.69081,0.0768 c 0.32295,-0.0623 0.85145,-0.0623 1.17443,0 0.32295,0.0623 0.0589,0.11312 -0.58722,0.11312 -0.64593,0 -0.91019,-0.0509 -0.58721,-0.11312 z m 85.39308,-1.83846 -0.89941,-0.97869 0.9787,0.89941 c 0.53826,0.49464 0.97869,0.93507 0.97869,0.97869 0,0.19943 -0.22102,0.0123 -1.05798,-0.89941 z m -51.90125,0.0435 c 0.0123,-0.30393 0.0743,-0.36586 0.15783,-0.15782 0.0755,0.18834 0.0663,0.41348 -0.0216,0.50022 -0.0866,0.0866 -0.14827,-0.0675 -0.13717,-0.34255 z m 49.01117,-1.08741 c -0.32462,-0.41395 -0.3154,-0.4232 0.0986,-0.0986 0.43472,0.34092 0.57297,0.55525 0.35819,0.55525 -0.0543,0 -0.25986,-0.2056 -0.45674,-0.4567 z m -38.31082,-0.21762 c 0.0123,-0.30394 0.0743,-0.36587 0.15752,-0.15752 0.0755,0.18834 0.0663,0.41349 -0.0216,0.50023 -0.0866,0.0866 -0.14827,-0.0675 -0.13717,-0.34256 z m 39.61573,-0.30455 c -0.32462,-0.41392 -0.3154,-0.42317 0.0986,-0.0986 0.43476,0.34092 0.57301,0.55524 0.35819,0.55524 -0.0542,0 -0.25986,-0.2056 -0.45674,-0.45673 z m -91.05023,-0.42477 c 0,-0.0542 0.20561,-0.25955 0.45671,-0.4567 0.41394,-0.32465 0.42316,-0.3154 0.0986,0.0986 -0.34092,0.43475 -0.55524,0.573 -0.55524,0.35818 z m 87.39646,-1.14114 c -0.32462,-0.41392 -0.3154,-0.42317 0.0986,-0.0986 0.43472,0.34092 0.57297,0.55525 0.35819,0.55525 -0.0543,0 -0.25986,-0.2056 -0.45674,-0.45673 z m -83.2813,-0.25431 c 0.46909,-0.0583 1.17375,-0.057 1.56591,0.003 0.39218,0.0595 0.009,0.10697 -0.85287,0.10573 -0.86124,-0.002 -1.1821,-0.0502 -0.71304,-0.10819 z m 84.58621,-0.26756 c -0.32461,-0.41394 -0.3154,-0.42316 0.0986,-0.0986 0.43476,0.34096 0.57301,0.55528 0.35819,0.55528 -0.0543,0 -0.25986,-0.2056 -0.45673,-0.45673 z m -18.88806,-1.37016 c 0.70691,-0.7177 1.34403,-1.30492 1.41579,-1.30492 0.0718,0 -0.44789,0.58722 -1.1548,1.30492 -0.70694,0.71769 -1.34403,1.30491 -1.41582,1.30491 -0.0718,0 0.44792,-0.58722 1.15483,-1.30491 z m -68.05166,0.61011 c 0.1794,-0.0724 0.47301,-0.0724 0.65244,0 0.1794,0.0724 0.0327,0.13163 -0.32622,0.13163 -0.35887,0 -0.50565,-0.0592 -0.32622,-0.13163 z m 12.90433,-0.47963 c 0.006,-0.43063 0.0638,-0.5752 0.13008,-0.32126 0.0663,0.254 0.0616,0.60626 -0.009,0.78295 -0.0715,0.17663 -0.12576,-0.0311 -0.12022,-0.46169 z m 56.71323,0.13039 c 0.25986,-0.28698 0.53109,-0.52199 0.60288,-0.52199 0.0718,0 -0.082,0.23488 -0.34188,0.52199 -0.25986,0.28698 -0.53111,0.52195 -0.60287,0.52195 -0.0718,0 0.082,-0.23488 0.34187,-0.52195 z m -51.21234,-0.78296 c 0,-0.64593 0.0509,-0.91019 0.11313,-0.58721 0.0623,0.32295 0.0623,0.85144 0,1.17443 -0.0623,0.32295 -0.11313,0.0586 -0.11313,-0.58722 z m 39.4064,0.59566 c 0.39668,-0.0601 0.9839,-0.0582 1.30491,0.003 0.32098,0.0619 -0.003,0.11097 -0.7213,0.10912 -0.7177,-0.002 -0.98033,-0.0527 -0.58361,-0.11251 z m -41.54476,-0.48694 c 0.0123,-0.30393 0.0743,-0.36586 0.15752,-0.15751 0.0755,0.18834 0.0663,0.41348 -0.0216,0.50022 -0.0866,0.0866 -0.14857,-0.0675 -0.13717,-0.34255 z m 3.39281,-0.78295 c 0.0123,-0.30393 0.0743,-0.36586 0.15783,-0.15752 0.0755,0.18834 0.066,0.41349 -0.0216,0.50023 -0.0866,0.0866 -0.14827,-0.0675 -0.13717,-0.34256 z m 37.51221,-0.0247 c 0.18834,-0.0755 0.41348,-0.0663 0.50022,0.0216 0.0866,0.0866 -0.0675,0.14857 -0.34255,0.13717 -0.30394,-0.0123 -0.36586,-0.0743 -0.15783,-0.15783 z m 2.08786,0 c 0.18834,-0.0755 0.41349,-0.0663 0.50023,0.0216 0.0866,0.0866 -0.0675,0.14857 -0.34256,0.13717 -0.30393,-0.0123 -0.36586,-0.0743 -0.15782,-0.15783 z m -63.31938,-0.73514 c 0.006,-0.43063 0.0638,-0.5752 0.13008,-0.32126 0.0663,0.254 0.0619,0.60626 -0.009,0.78295 -0.0715,0.17663 -0.12577,-0.0311 -0.12022,-0.46169 z m 67.67457,-0.13039 c 0.25986,-0.28698 0.53109,-0.52199 0.60285,-0.52199 0.0718,0 -0.082,0.23488 -0.34188,0.52199 -0.25986,0.28698 -0.53108,0.52196 -0.60288,0.52196 -0.0718,0 0.082,-0.23489 0.34191,-0.52196 z m -52.21329,-0.58722 -0.76655,-0.84821 0.84821,0.76653 c 0.4665,0.42159 0.84818,0.80329 0.84818,0.84821 0,0.20159 -0.21547,0.0247 -0.92984,-0.76653 z m 51.29983,-0.32625 c 0.33713,-0.35883 0.67167,-0.65244 0.74346,-0.65244 0.0718,0 -0.14549,0.29376 -0.48247,0.65244 -0.33713,0.35886 -0.67167,0.65247 -0.74346,0.65247 -0.0718,0 0.14549,-0.29376 0.48247,-0.65247 z m -10.04788,0.13039 c -0.0888,-0.14364 -0.037,-0.26109 0.11498,-0.26109 0.15197,0 0.2765,0.11745 0.2765,0.26109 0,0.14364 -0.0518,0.26109 -0.11498,0.26109 -0.0632,0 -0.18772,-0.11745 -0.2765,-0.26109 z m 3.06656,-0.70891 c 0.39474,-0.0598 1.04068,-0.0598 1.43542,0 0.39471,0.0598 0.0718,0.10881 -0.71773,0.10881 -0.78945,0 -1.11244,-0.049 -0.71769,-0.10881 z m -46.25949,-0.44074 c 0,-0.0564 0.18218,-0.17262 0.40504,-0.258 0.23242,-0.0891 0.33701,-0.0453 0.24567,0.10265 -0.1532,0.24783 -0.65062,0.36681 -0.65062,0.15535 z m 37.32075,-0.53447 c 0,-0.20683 0.10635,-0.44187 0.23674,-0.52233 0.13008,-0.0804 0.17508,0.0888 0.10018,0.37607 -0.15937,0.60941 -0.3367,0.68644 -0.3367,0.14611 z m -18.59513,-0.0576 c 0.1794,-0.0724 0.47304,-0.0724 0.65247,0 0.1794,0.0724 0.0327,0.13162 -0.32622,0.13162 -0.35887,0 -0.50565,-0.0592 -0.32625,-0.13162 z m 11.23864,-0.006 c 0.18834,-0.0755 0.41352,-0.0663 0.50023,0.0216 0.0866,0.0866 -0.0675,0.14858 -0.34253,0.13717 -0.30393,-0.0123 -0.36589,-0.0743 -0.15782,-0.15751 z m -37.58175,-0.26108 c 0.18834,-0.0755 0.41352,-0.0663 0.50023,0.0216 0.0866,0.0866 -0.0675,0.14827 -0.34253,0.13717 -0.30393,-0.0123 -0.36589,-0.0743 -0.15751,-0.15751 z m 1.15813,-0.002 c 0.25122,-0.0656 0.66224,-0.0656 0.91343,0 0.25123,0.0657 0.0456,0.1193 -0.4567,0.1193 -0.50242,0 -0.70793,-0.0536 -0.45673,-0.1193 z m 29.50077,-0.7962 c 0.83058,-0.0518 2.12245,-0.0515 2.87082,0.001 0.74834,0.0524 0.0687,0.0949 -1.5102,0.0943 -1.57895,-5.2e-4 -2.19122,-0.0435 -1.36062,-0.0956 z m -4.82144,-0.24599 c 0.18834,-0.0755 0.41351,-0.0663 0.50022,0.0216 0.0866,0.0866 -0.0675,0.14827 -0.34252,0.13717 -0.30394,-0.0123 -0.3659,-0.0743 -0.15783,-0.15782 z m 12.26628,0 c 0.18834,-0.0755 0.41349,-0.0663 0.5002,0.0216 0.0866,0.0866 -0.0675,0.14827 -0.34253,0.13717 -0.30393,-0.0123 -0.36586,-0.0743 -0.15782,-0.15782 z m -37.46757,-0.26262 c 0.25122,-0.0657 0.66224,-0.0657 0.91343,0 0.25123,0.0656 0.0456,0.11929 -0.45673,0.11929 -0.50238,0 -0.70789,-0.0536 -0.4567,-0.11929 z m 22.85243,0.002 c 0.18834,-0.0755 0.41351,-0.0663 0.50022,0.0216 0.0866,0.0866 -0.0675,0.14826 -0.34252,0.13717 -0.30394,-0.0123 -0.3659,-0.0743 -0.15783,-0.15752 z m 16.964,0 c 0.18834,-0.0755 0.41349,-0.0663 0.5002,0.0216 0.0866,0.0866 -0.0675,0.14826 -0.34253,0.13717 -0.30393,-0.0123 -0.36586,-0.0743 -0.15782,-0.15752 z m 21.44965,-0.44215 c 0,-0.0543 0.2056,-0.25986 0.45673,-0.45674 0.41392,-0.32465 0.42316,-0.3154 0.0986,0.0986 -0.34096,0.43473 -0.55528,0.57298 -0.55528,0.35819 z m -17.88971,-1.27166 -1.03168,-1.10917 1.1092,1.03165 c 1.03153,0.95942 1.22912,1.18673 1.03165,1.18673 -0.0425,0 -0.54178,-0.49915 -1.10917,-1.10921 z m 19.38601,0.033 c 0.17693,-0.17848 0.38762,-0.25862 0.46798,-0.17817 0.0805,0.0805 -0.0644,0.22625 -0.32187,0.32431 -0.37196,0.14179 -0.40193,0.11158 -0.14611,-0.14611 z m -55.1534,-0.81582 -0.49718,-0.58721 0.58722,0.49717 c 0.55186,0.46722 0.70604,0.67726 0.49717,0.67726 -0.0496,0 -0.31377,-0.26417 -0.58721,-0.58722 z m 57.57186,0.0654 c -0.23519,-0.15196 -0.26756,-0.25461 -0.0808,-0.25708 0.17108,-0.002 0.3834,0.11344 0.47211,0.25708 0.20037,0.32403 0.11005,0.32403 -0.39147,0 z m -54.29881,-2.02264 -0.89938,-0.97869 0.97869,0.89941 c 0.91094,0.83715 1.09869,1.05798 0.89938,1.05798 -0.0438,0 -0.48401,-0.4404 -0.97869,-0.9787 z m 52.73291,0.88018 c 0,-0.0542 0.2056,-0.25986 0.45673,-0.45673 0.41392,-0.32465 0.42316,-0.3154 0.0986,0.0986 -0.34096,0.43472 -0.55528,0.57297 -0.55528,0.35818 z m -69.55235,-0.9454 c 0.25986,-0.28698 0.53112,-0.52199 0.60288,-0.52199 0.0718,0 -0.082,0.23488 -0.34188,0.52199 -0.25986,0.28698 -0.53111,0.52196 -0.60287,0.52196 -0.0718,0 0.082,-0.23489 0.34187,-0.52196 z m 55.41024,0.34367 c 0.18834,-0.0755 0.41352,-0.0663 0.50023,0.0216 0.0866,0.0866 -0.0675,0.14827 -0.34253,0.13717 -0.30393,-0.0123 -0.36589,-0.0743 -0.15782,-0.15782 z m 17.4044,-0.60467 c 0.25985,-0.28698 0.53111,-0.52195 0.60287,-0.52195 0.0718,0 -0.082,0.23488 -0.34188,0.52195 -0.25985,0.28698 -0.53111,0.52196 -0.60287,0.52196 -0.0718,0 0.082,-0.23488 0.34188,-0.52196 z M 169.377,145.55168 c 0.32462,-0.0623 0.79439,-0.0601 1.04392,0.006 0.24968,0.0653 -0.0154,0.11652 -0.59024,0.11344 -0.57417,-0.003 -0.77833,-0.0564 -0.45368,-0.11868 z m -46.58876,-0.25616 c 0.25122,-0.0657 0.66224,-0.0657 0.91344,0 0.25122,0.0657 0.0456,0.1193 -0.45671,0.1193 -0.50241,0 -0.70792,-0.0536 -0.45673,-0.1193 z m 50.51678,-1.30327 c 0.18834,-0.0755 0.41349,-0.0663 0.50023,0.0216 0.0866,0.0866 -0.0675,0.14827 -0.34256,0.13717 -0.30393,-0.0123 -0.36586,-0.0743 -0.15751,-0.15782 z m -42.11646,-0.93092 -0.76653,-0.84821 0.84821,0.76656 c 0.46651,0.42159 0.84818,0.80327 0.84818,0.84818 0,0.20159 -0.21546,0.0247 -0.92986,-0.76653 z m -2.20096,-0.3252 c -0.33661,-0.35828 -0.56262,-0.69513 -0.50223,-0.74855 0.0604,-0.0533 0.38293,0.23982 0.71683,0.65142 0.7472,0.92136 0.61563,0.98088 -0.21454,0.0971 z m 43.51816,0.47859 c 0.1794,-0.0724 0.47304,-0.0724 0.65247,0 0.1794,0.0724 0.0327,0.13162 -0.32625,0.13162 -0.35883,0 -0.50565,-0.0592 -0.32622,-0.13162 z m -8.9691,-0.9425 -0.49159,-0.58105 0.56428,0.47643 c 0.54631,0.46123 0.56823,0.46123 0.68746,0 0.10542,-0.408 0.12761,-0.41306 0.1535,-0.0351 0.0484,0.70416 -0.38053,0.76976 -0.91355,0.13963 z m 8.70811,-1.14537 c 0.1794,-0.0724 0.47304,-0.0724 0.65247,0 0.1794,0.0724 0.0327,0.13163 -0.32622,0.13163 -0.35887,0 -0.50568,-0.0592 -0.32625,-0.13163 z m -42.71558,-0.50136 c 0.0123,-0.30394 0.0743,-0.3659 0.15782,-0.15783 0.0755,0.18834 0.0663,0.41352 -0.0216,0.50023 -0.0866,0.0866 -0.14858,-0.0675 -0.13717,-0.34253 z m 64.57304,-0.10882 c 0.25985,-0.28698 0.53108,-0.52195 0.60284,-0.52195 0.0718,0 -0.082,0.23488 -0.34188,0.52195 -0.25985,0.28698 -0.53108,0.52196 -0.60287,0.52196 -0.0718,0 0.082,-0.23488 0.34191,-0.52196 z m -72.66357,-0.6742 c 0.0123,-0.30393 0.0743,-0.36589 0.15783,-0.15782 0.0755,0.18834 0.066,0.41351 -0.0216,0.50023 -0.0866,0.0866 -0.14827,-0.0675 -0.13717,-0.34253 z m 46.12469,0.23489 c 0.18835,-0.0755 0.41352,-0.0663 0.50023,0.0216 0.0866,0.0866 -0.0675,0.14826 -0.34252,0.13717 -0.30394,-0.0123 -0.3659,-0.0743 -0.15752,-0.15783 z m 4.69772,0 c 0.18834,-0.0755 0.41352,-0.0663 0.50023,0.0216 0.0866,0.0866 -0.0675,0.14826 -0.34253,0.13717 -0.30393,-0.0123 -0.36589,-0.0743 -0.15751,-0.15783 z m -9.34648,-1.2252 c 0,-0.0542 0.2056,-0.25955 0.45673,-0.4567 0.41392,-0.32465 0.42316,-0.3154 0.0986,0.0986 -0.34096,0.43475 -0.55528,0.573 -0.55528,0.35818 z m -2.81028,-1.46736 c 0,-0.50238 0.0536,-0.70792 0.11929,-0.45673 0.0657,0.25122 0.0657,0.66224 0,0.91346 -0.0657,0.25123 -0.11929,0.0456 -0.11929,-0.45673 z m 17.70698,0.36971 c 0.0123,-0.30393 0.0743,-0.36586 0.15782,-0.15751 0.0755,0.18834 0.066,0.41349 -0.0216,0.50023 -0.0866,0.0866 -0.14827,-0.0675 -0.13717,-0.34256 z m -7.37709,-0.80896 c 0.18834,-0.0755 0.41349,-0.0663 0.5002,0.0216 0.0866,0.0866 -0.0675,0.14827 -0.34253,0.13717 -0.30393,-0.0123 -0.36586,-0.0743 -0.15751,-0.15782 z m -1.02832,-0.53944 c -0.32461,-0.41395 -0.31537,-0.42317 0.0986,-0.0986 0.43476,0.34095 0.57301,0.55528 0.35819,0.55528 -0.0542,0 -0.25985,-0.2056 -0.4567,-0.45673 z m -9.31125,-1.76165 c 0.006,-0.43062 0.0638,-0.57519 0.13008,-0.32125 0.0663,0.25399 0.0617,0.60626 -0.009,0.78295 -0.0715,0.17663 -0.12576,-0.0311 -0.12021,-0.4617 z m 32.62713,-0.23457 c 0.18495,-0.20098 0.37764,-0.3261 0.42788,-0.27835 0.15475,0.14703 -0.23766,0.6435 -0.50854,0.6435 -0.14057,0 -0.1045,-0.1643 0.0808,-0.36515 z m -68.04139,-1.46172 c 0.25985,-0.28698 0.53111,-0.52199 0.60287,-0.52199 0.0718,0 -0.082,0.23489 -0.34188,0.52199 -0.25985,0.28698 -0.53111,0.52196 -0.60287,0.52196 -0.0718,0 0.082,-0.23489 0.34188,-0.52196 z m 66.38724,-1.23969 c -0.32465,-0.41394 -0.3154,-0.42316 0.0986,-0.0986 0.43472,0.34096 0.57297,0.55528 0.35818,0.55528 -0.0542,0 -0.25985,-0.2056 -0.45673,-0.45673 z m -64.21781,0.0185 c 0.18834,-0.0755 0.41351,-0.0663 0.50022,0.0216 0.0866,0.0866 -0.0675,0.14826 -0.34252,0.13717 -0.30394,-0.0123 -0.3659,-0.0743 -0.15783,-0.15752 z m 62.54395,-0.10018 c -0.0946,-0.1532 -0.1159,-0.33433 -0.0478,-0.40273 0.0684,-0.0684 0.19389,0.0567 0.27897,0.27835 0.17662,0.45988 0.0277,0.54076 -0.23119,0.12453 z m -6.85448,-1.15708 c 0.006,-0.43062 0.0638,-0.57519 0.13009,-0.32126 0.0663,0.254 0.0619,0.60627 -0.009,0.78296 -0.0715,0.17662 -0.12577,-0.0311 -0.12022,-0.4617 z m 8.52834,-0.0653 c -0.32465,-0.41394 -0.3154,-0.42316 0.0986,-0.0986 0.25122,0.19697 0.45673,0.40252 0.45673,0.45674 0,0.21485 -0.21423,0.0764 -0.55528,-0.35819 z m 2.8005,-0.28266 c -0.074,-0.1196 0.0314,-0.21763 0.23396,-0.21763 0.20283,0 0.30794,0.098 0.23427,0.21763 -0.074,0.1196 -0.1794,0.21762 -0.23427,0.21762 -0.0549,0 -0.16029,-0.0977 -0.23396,-0.21762 z m -0.52196,-0.78295 c -0.074,-0.1196 0.0314,-0.21732 0.23396,-0.21732 0.20252,0 0.30795,0.0977 0.23397,0.21732 -0.074,0.1196 -0.17941,0.21762 -0.23397,0.21762 -0.0549,0 -0.16028,-0.098 -0.23396,-0.21762 z m -3.80167,-2.25044 c -0.34493,-0.41558 -0.16028,-0.92721 0.33214,-0.92086 0.19513,0.002 0.17139,0.0922 -0.0638,0.24105 -0.31053,0.19666 -0.31624,0.30763 -0.0333,0.64846 0.18773,0.22626 0.28267,0.41139 0.21085,0.41139 -0.0718,0 -0.27249,-0.17108 -0.44592,-0.38007 z m 4.13298,-0.33766 c -0.32465,-0.41391 -0.3154,-0.42316 0.0986,-0.0986 0.43472,0.34093 0.57297,0.55525 0.35819,0.55525 -0.0543,0 -0.25986,-0.2056 -0.45674,-0.45673 z m -2.20987,-0.65244 -0.49717,-0.58721 0.58721,0.49714 c 0.55183,0.46725 0.70601,0.67729 0.49714,0.67729 -0.0496,0 -0.31376,-0.26417 -0.58718,-0.58722 z m 7.22246,-0.0869 c 0.0123,-0.30394 0.0743,-0.36586 0.15783,-0.15783 0.0755,0.18834 0.0663,0.41349 -0.0216,0.50023 -0.0866,0.0866 -0.14827,-0.0675 -0.13717,-0.34256 z m -6.31753,-0.82645 c -0.32462,-0.41392 -0.3154,-0.42316 0.0986,-0.0986 0.25122,0.19697 0.45673,0.40251 0.45673,0.4567 0,0.21485 -0.21423,0.0764 -0.55528,-0.35818 z m 5.31354,-1.37017 c 0,-0.50238 0.0536,-0.70792 0.11929,-0.4567 0.0657,0.25122 0.0657,0.66224 0,0.91344 -0.0657,0.25122 -0.11929,0.0456 -0.11929,-0.45674 z m -36.63167,0.0654 c -0.32461,-0.41395 -0.3154,-0.42316 0.0986,-0.0986 0.43476,0.34096 0.57301,0.55528 0.35819,0.55528 -0.0542,0 -0.25985,-0.2056 -0.4567,-0.45673 z m 20.50416,-0.39147 -0.76652,-0.84821 0.84817,0.76655 c 0.79066,0.71452 0.96818,0.92986 0.76656,0.92986 -0.045,0 -0.42662,-0.3817 -0.84821,-0.8482 z m -14.33772,-2.02264 c -0.42551,-0.1828 -0.44043,-0.2278 -0.0808,-0.2426 0.24259,-0.009 0.51391,0.099 0.60262,0.2426 0.18557,0.30023 0.17632,0.30023 -0.52198,0 z m 30.16428,-0.15228 c 0.0123,-0.30393 0.0743,-0.36586 0.15783,-0.15782 0.0755,0.18834 0.0663,0.41348 -0.0216,0.50022 -0.0866,0.0866 -0.14827,-0.0675 -0.13717,-0.34255 z m -4.14546,-1.54414 c 0.006,-0.43063 0.0638,-0.5752 0.13008,-0.32126 0.0663,0.254 0.0616,0.60623 -0.009,0.78295 -0.0715,0.17663 -0.12577,-0.0311 -0.12022,-0.46169 z m -5.07483,-1.0863 c 0.1794,-0.0724 0.47304,-0.0724 0.65247,0 0.17941,0.0724 0.0327,0.13162 -0.32625,0.13162 -0.35883,0 -0.50565,-0.0592 -0.32622,-0.13162 z m 2.62616,-0.006 c 0.18834,-0.0755 0.41349,-0.0663 0.50023,0.0216 0.0866,0.0866 -0.0675,0.14827 -0.34256,0.13717 -0.30393,-0.0123 -0.36586,-0.0743 -0.15782,-0.15782 z m -23.96163,-0.18125 c 0,-0.0542 0.2056,-0.25985 0.45673,-0.45673 0.41392,-0.32462 0.42317,-0.31537 0.0986,0.0986 -0.34095,0.43475 -0.55528,0.573 -0.55528,0.35818 z m 14.34521,-1.92409 -1.42648,-1.50065 1.50065,1.42648 c 0.82537,0.78459 1.50068,1.45987 1.50068,1.50068 0,0.19359 -0.24968,-0.0324 -1.57485,-1.42651 z m 5.44066,1.06139 c 0.18834,-0.0755 0.41352,-0.0663 0.50023,0.0216 0.0866,0.0866 -0.0675,0.14858 -0.34256,0.13717 -0.30393,-0.0123 -0.36586,-0.0743 -0.15782,-0.15751 z m 1.8106,-0.25554 c 0.1794,-0.0724 0.47301,-0.0724 0.65244,0 0.1794,0.0724 0.0327,0.13163 -0.32622,0.13163 -0.35887,0 -0.50565,-0.0592 -0.32622,-0.13163 z m 1.69639,-0.006 c 0.25122,-0.0657 0.66224,-0.0657 0.91343,0 0.25122,0.0657 0.0456,0.11929 -0.4567,0.11929 -0.50242,0 -0.70793,-0.0536 -0.45673,-0.11929 z m -8.29607,-1.97323 -1.29511,-1.37016 1.37017,1.2951 c 1.27319,1.20347 1.48986,1.44523 1.29511,1.44523 -0.0413,0 -0.65787,-0.61656 -1.37017,-1.37017 z m 12.90877,0.65247 -0.63268,-0.71769 0.71769,0.63271 c 0.39475,0.34798 0.7177,0.67094 0.7177,0.7177 0,0.20467 -0.21146,0.0382 -0.80271,-0.63272 z m -19.22782,-0.24505 c 0.25123,-0.0657 0.66224,-0.0657 0.91344,0 0.25122,0.0656 0.0456,0.11929 -0.45674,0.11929 -0.50238,0 -0.70792,-0.0536 -0.4567,-0.11929 z m 16.357,-2.10371 -0.63271,-0.7177 0.71773,0.63271 c 0.39471,0.34799 0.71769,0.67094 0.71769,0.7177 0,0.20468 -0.21146,0.0382 -0.80271,-0.63271 z m 1.29138,-0.52196 c -0.32462,-0.41395 -0.3154,-0.42317 0.0986,-0.0986 0.25122,0.19697 0.45673,0.40251 0.45673,0.4567 0,0.21485 -0.21423,0.0765 -0.55525,-0.35818 z m -3.13181,-1.56591 c -0.32462,-0.41394 -0.3154,-0.42316 0.0986,-0.0986 0.25122,0.19697 0.45673,0.40252 0.45673,0.45671 0,0.21484 -0.21423,0.0764 -0.55525,-0.35819 z m -28.2835,-0.84821 c 0.25985,-0.28698 0.53108,-0.52195 0.60287,-0.52195 0.0718,0 -0.082,0.23488 -0.34188,0.52195 -0.25985,0.28698 -0.53111,0.52196 -0.60287,0.52196 -0.0718,0 0.082,-0.23488 0.34188,-0.52196 z m 14.48463,-0.6205 c 0,-0.0542 0.2056,-0.25986 0.45673,-0.45674 0.41392,-0.32461 0.42317,-0.3154 0.0986,0.0986 -0.34095,0.43476 -0.55528,0.57301 -0.55528,0.35819 z m 0.13039,-1.98935 c 0.25985,-0.28698 0.53108,-0.52196 0.60287,-0.52196 0.0718,0 -0.082,0.23489 -0.34188,0.52196 -0.25985,0.28698 -0.53111,0.52199 -0.60287,0.52199 -0.0718,0 0.082,-0.23489 0.34188,-0.52199 z m 7.41829,-0.19574 -0.63271,-0.7177 0.71773,0.63272 c 0.39471,0.34798 0.7177,0.67096 0.7177,0.71769 0,0.20468 -0.21146,0.0382 -0.80272,-0.63271 z m 3.87232,0.27219 c 0.32465,-0.0626 0.79442,-0.0601 1.04395,0.006 0.24968,0.0653 -0.0154,0.11652 -0.59027,0.11344 -0.57417,-0.003 -0.77833,-0.0564 -0.45368,-0.11868 z m -9.33323,-0.43661 c 0,-0.0543 0.2056,-0.25985 0.45673,-0.45673 0.41392,-0.32462 0.42317,-0.3154 0.0986,0.0986 -0.34095,0.43475 -0.55528,0.573 -0.55528,0.35818 z m 2.03895,-2.6896 c 0.18834,-0.0755 0.41348,-0.0663 0.50022,0.0216 0.0866,0.0866 -0.0675,0.14827 -0.34255,0.13717 -0.30394,-0.0123 -0.36587,-0.0743 -0.15783,-0.15782 z"
         id="path876" />
      <path
         style="fill:#030404;stroke-width:0.260984"
         d="m 204.1501,259.17176 c -3.64452,-0.80234 -6.34213,-3.36827 -7.30655,-6.94991 -0.18896,-0.702 -0.80653,-1.74238 -1.54815,-2.60837 -1.92224,-2.24455 -3.06344,-4.32656 -4.07987,-7.44317 -1.06395,-3.26251 -3.40563,-8.26891 -6.13989,-13.12686 -2.71478,-4.82339 -5.5246,-9.22725 -5.73988,-8.99628 -0.36385,0.39033 -2.02723,5.99079 -2.81126,9.46538 -0.93304,4.13473 -1.75499,9.92282 -1.98284,13.96267 -0.22749,4.03258 -0.36513,4.78045 -0.91221,4.95409 -0.3367,0.10696 -0.50978,0.52356 -0.62636,1.50786 -0.2765,2.33406 -1.64849,3.62008 -4.04737,3.79362 -1.36632,0.0989 -1.57987,0.0459 -1.94925,-0.4813 l -0.41487,-0.59227 -2.09828,0.82916 c -5.40623,2.13632 -11.87013,2.87449 -14.40896,1.64547 -3.41975,-1.65545 -1.39865,-4.60571 4.67121,-6.81866 l 2.02587,-0.7386 1.09466,-17.57825 c 1.41708,-22.75656 1.49257,-27.65612 0.54415,-35.32521 -1.76725,-14.29049 -1.80344,-14.77383 -1.71852,-22.95186 l 0.0798,-7.67627 -0.78727,0.48685 c -1.0433,0.64516 -3.93699,1.66836 -6.52031,2.30558 -6.65691,1.64201 -15.69007,1.65129 -24.0636,0.0247 -4.17764,-0.8115 -5.19865,-1.22511 -6.89017,-2.79117 -2.09785,-1.94225 -2.56981,-3.73111 -1.34341,-5.09191 0.38349,-0.42554 0.3642,-0.51641 -0.24937,-1.17443 -1.39542,-1.49636 -1.64744,-3.14173 -0.71289,-4.65388 l 0.53799,-0.87047 -0.64289,-1.11771 c -0.83224,-1.44698 -1.04718,-2.53711 -0.68746,-3.48651 0.67168,-1.7725 2.27331,-2.71651 5.54023,-3.26544 l 1.95251,-0.32807 -0.50318,-1.1375 c -1.22533,-2.77005 -1.07102,-6.22611 0.4083,-9.14539 1.55432,-3.06732 4.71686,-4.08593 6.65825,-2.14455 1.36261,1.36265 1.45537,2.13771 0.69643,5.82153 -0.36833,1.78794 -0.58654,3.46756 -0.48488,3.73247 0.10172,0.26479 1.97677,2.26878 4.16688,4.45303 l 3.98206,3.97136 2.81632,0.52751 c 7.68934,1.44029 16.22023,1.62795 22.73794,0.50016 l 1.65274,-0.28605 -0.759,-0.81766 c -2.0121,-2.16749 -3.81317,-5.27224 -4.6378,-7.9947 -1.05942,-3.4977 -0.73727,-9.24195 0.78767,-14.04402 l 0.62177,-1.95793 -0.89978,-1.05119 c -1.55249,-1.81374 -1.65958,-3.82048 -0.27496,-5.15307 0.59517,-0.57282 0.60078,-0.62177 0.23273,-2.0309 -0.44227,-1.69364 -0.26817,-3.41281 0.47486,-4.69069 0.84525,-1.45358 2.16576,-2.90263 2.64971,-2.90759 0.385,-0.003 0.45673,0.24228 0.45673,1.56939 0,2.54697 0.58568,2.48942 5.18836,-0.50975 3.39737,-2.21376 4.70999,-2.66355 6.15999,-2.11077 0.7464,0.28451 0.8324,0.23858 2.08787,-1.11602 1.64429,-1.77413 1.97733,-2.0129 3.18831,-2.28604 1.22378,-0.27588 2.67185,0.30961 4.21667,1.70527 1.07212,0.96858 2.29568,1.42032 3.87882,1.43206 0.71548,0.006 1.0016,0.22503 1.93013,1.48191 1.25304,1.69618 2.94751,3.43754 4.74365,4.8749 4.62719,3.70291 5.07067,11.98526 1.00203,18.71406 l -1.00468,1.66156 0.61339,1.31727 c 0.90979,1.95378 0.752,3.44515 -0.50806,4.80147 -0.62553,0.67334 -3.32453,2.12695 -3.94917,2.12695 -0.21608,0 -0.59257,0.32299 -0.83658,0.71773 -0.24414,0.39472 -0.90595,1.20544 -1.47091,1.80153 l -1.02724,1.08387 0.61672,0.38093 c 0.33916,0.20961 2.44854,1.32988 4.68745,2.48973 12.16644,6.30262 19.51258,12.88544 23.99545,21.50202 l 1.08895,2.09311 -1.22594,3.7574 c -1.84164,5.64457 -5.81506,13.17698 -8.90215,16.87581 l -0.60395,0.72362 0.64017,0.94333 c 1.6262,2.39633 1.40303,5.07391 -0.63798,7.65451 -0.51237,0.64779 -0.52671,0.64964 -5.09693,0.65244 -2.52074,0.002 -4.58367,0.0398 -4.58428,0.0851 -5.3e-4,0.0453 0.57386,1.1609 1.27664,2.47934 2.38961,4.48302 8.5472,23.70958 10.21276,31.88838 0.66344,3.25792 0.79343,7.8967 0.27342,9.75729 -0.29592,1.05906 -0.26571,1.26435 0.40504,2.74034 0.93307,2.05337 1.13944,4.62414 0.48238,6.00876 -0.88043,1.85536 -3.58627,2.76562 -6.38776,2.14887 z m 4.19861,-1.54599 c 0.48564,-0.32727 1.03648,-0.88511 1.22405,-1.23965 0.4941,-0.93385 0.26479,-3.01709 -0.52057,-4.73259 l -0.67679,-1.47811 -2.30839,0.80357 c -1.83645,0.63931 -2.76191,0.80811 -4.52673,0.82565 -1.22011,0.0123 -2.54136,-0.0681 -2.93607,-0.17879 -0.90083,-0.25184 -0.94183,0.16461 -0.16861,1.71177 1.02742,2.05538 3.2872,3.97771 5.45336,4.639 1.42744,0.43577 3.53867,0.26972 4.45959,-0.351 z m -48.07696,-3.95573 c 1.34551,-0.37184 3.2811,-1.02681 4.30131,-1.45543 2.27106,-0.95422 2.60067,-0.96337 3.23686,-0.09 0.43584,0.59834 0.6247,0.66631 1.43071,0.51512 1.31616,-0.24691 2.22818,-1.06282 2.55829,-2.28869 0.15628,-0.58096 0.24598,-1.09463 0.19912,-1.14148 -0.0469,-0.0469 -1.02348,0.13871 -2.17029,0.41219 -3.2015,0.76375 -6.94143,0.93073 -8.99696,0.40171 -0.9307,-0.23951 -2.08404,-0.66671 -2.563,-0.94932 l -0.87077,-0.51375 -1.89139,0.67142 c -3.88138,1.37794 -6.37321,3.21711 -5.73858,4.23553 0.52599,0.84408 1.88846,1.11133 5.05692,0.99195 2.14329,-0.0808 3.70068,-0.3064 5.44769,-0.78918 z m 43.48235,-3.41284 c 1.00227,-0.21239 2.43732,-0.68691 3.18899,-1.05465 1.13957,-0.55756 1.41113,-0.82873 1.63424,-1.63209 0.381,-1.37174 0.33276,-5.04308 -0.0983,-7.48805 -0.71264,-4.04136 -2.96828,-12.10908 -5.89933,-21.09991 -2.61229,-8.01321 -3.42656,-10.04161 -5.47497,-13.63876 -0.98957,-1.73776 -1.87715,-3.47002 -1.9724,-3.84951 -0.20221,-0.80542 -0.26848,-0.818 -1.53036,-0.29068 -1.59756,0.66752 -5.61399,1.6741 -8.37313,2.09847 -3.51213,0.54018 -10.20539,0.53265 -13.5712,-0.0154 -3.06874,-0.49952 -8.05606,-1.73347 -9.94384,-2.46023 l -1.33133,-0.51256 -0.15351,6.96551 c -0.0845,3.83101 -0.57587,13.47958 -1.09209,21.44126 -0.51623,7.96165 -0.90505,15.478 -0.86402,16.70298 l 0.0746,2.22729 0.91791,0.44915 c 1.44331,0.70629 4.18291,0.99096 6.74708,0.70105 2.52376,-0.28544 6.74801,-1.21463 6.94106,-1.52701 0.0694,-0.1122 0.25338,-1.89357 0.4093,-3.95878 0.58718,-7.78277 1.76722,-14.19229 3.83859,-20.84943 1.14931,-3.69365 1.16996,-3.82142 0.86264,-5.3361 -0.17324,-0.85351 -0.5395,-1.99218 -0.81406,-2.53039 -0.33063,-0.64803 -0.40587,-1.03627 -0.22286,-1.14939 0.34021,-0.21023 0.14333,-0.50177 1.88793,2.79646 0.81005,1.53151 2.27356,4.05653 3.25225,5.61116 4.67503,7.42637 8.61264,15.1412 10.10518,19.79885 0.66163,2.06474 1.34464,3.57627 2.20679,4.8838 1.74318,2.64361 2.57893,3.35764 4.38382,3.74536 2.00853,0.43145 2.73969,0.4272 4.89106,-0.0278 z m 2.89304,-47.6407 c 1.31675,-1.0928 1.8359,-3.85348 1.04003,-5.5306 -1.01355,-2.13592 -1.93654,-2.15254 -3.16464,-0.057 -0.78203,1.33444 -0.7299,2.51501 0.10142,2.2976 0.57599,-0.15074 1.20898,0.53555 0.99894,1.08291 -0.0832,0.21701 -0.37708,0.3948 -0.65275,0.3948 -0.86689,0 -1.6262,-0.84651 -1.77863,-1.98281 -0.1643,-1.22551 0.26972,-2.24689 1.46132,-3.43849 l 0.77897,-0.77898 -1.61954,-0.3157 c -2.04791,-0.39925 -4.36629,-1.62093 -5.53877,-2.91872 -0.89836,-0.99438 -0.91381,-0.99987 -1.41367,-0.50001 -1.61704,1.61704 -1.66439,8.34547 -0.078,11.07049 0.60999,1.04774 1.43471,1.19847 5.99662,1.09598 2.36584,-0.053 3.58663,-0.18557 3.86859,-0.41953 z m -22.5877,-0.37748 c 4.31872,-0.56961 10.37178,-2.27546 10.26004,-2.89147 -0.28729,-1.58431 -0.60873,-5.90747 -0.60873,-8.18941 0,-1.58462 -0.0484,-2.88111 -0.10727,-2.88111 -0.0589,0 -1.32156,0.28482 -2.80559,0.63314 -2.77227,0.65053 -7.67066,1.55299 -10.03558,1.84891 -1.61686,0.20221 -3.23193,-0.1942 -4.20705,-1.03297 l -0.72186,-0.62091 0.006,-6.09048 c 0.006,-6.11909 0.34135,-11.31084 1.05751,-16.39938 0.62578,-4.44625 0.43235,-4.068 2.41131,-4.71514 5.18734,-1.69626 9.24292,-4.82635 11.09728,-8.56489 1.36342,-2.74878 1.33595,-2.85386 -1.06673,-4.07841 -1.11244,-0.56697 -2.08845,-1.06485 -2.16893,-1.10643 -0.0804,-0.0416 -0.65709,1.05066 -1.28139,2.42721 -2.04129,4.50097 -4.38774,6.3737 -7.9921,6.37867 -2.89283,0.003 -5.69633,-1.12727 -9.24058,-3.72871 -1.07656,-0.7902 -2.04548,-1.38268 -2.15312,-1.31669 -0.10758,0.066 -0.19573,0.88116 -0.19573,1.81146 0,1.9732 0.5603,3.28677 2.13616,5.008 0.64141,0.70053 0.97543,1.28614 0.89315,1.56591 -0.64618,2.19735 -1.29998,9.76833 -1.74015,20.15118 -0.36238,8.54744 -0.33729,8.46588 -2.55422,8.3005 -0.97524,-0.0727 -2.29356,-0.47251 -3.8894,-1.17936 -1.97646,-0.87543 -2.41125,-0.99096 -2.3983,-0.63718 0.009,0.23766 0.33525,3.06492 0.72568,6.28276 l 0.70993,5.8507 1.81889,0.61751 c 3.82247,1.29776 8.31715,2.25704 13.04122,2.78331 2.08888,0.23273 6.33616,0.12577 9.00908,-0.22656 z m 25.11827,-11.61643 c 2.70843,-4.00166 5.34979,-9.33086 6.72995,-13.57829 l 1.12905,-3.47458 -1.02789,-1.95985 c -3.86387,-7.36731 -11.08677,-14.09396 -20.80173,-19.3726 -2.25466,-1.22508 -2.80128,-1.35599 -2.80128,-0.67103 0,0.17508 -0.39311,1.13698 -0.87358,2.13771 -1.03396,2.15364 -2.89172,4.39942 -4.83301,5.84249 -1.6967,1.26123 -5.19113,2.99998 -6.88589,3.42625 -0.68184,0.17139 -1.23968,0.35736 -1.23968,0.41303 0,0.0558 -0.18064,1.30423 -0.40156,2.77461 -0.66865,4.45127 -1.16435,11.76424 -1.16435,17.17682 0,4.87844 0.0247,5.14341 0.55084,5.61713 0.89279,0.80577 4.16544,0.6329 9.75803,-0.51539 7.14192,-1.46643 6.54768,-1.16262 6.8907,-3.5227 0.15906,-1.09413 0.71193,-3.905 1.22868,-6.24637 0.51675,-2.34133 0.89784,-4.28676 0.84682,-4.32316 -5.80507,-4.14139 -5.91404,-4.24025 -5.32454,-4.82974 0.33861,-0.33861 0.56453,-0.254 1.89468,0.71023 3.15706,2.28839 6.03546,3.46793 10.20068,4.18011 3.10706,0.53124 3.40024,0.9642 1.30642,1.92943 -1.65231,0.76171 -3.11812,2.21658 -4.45241,4.41915 -1.20026,1.98136 -1.432,2.77011 -1.77573,6.04412 l -0.26972,2.56821 0.93239,1.13784 c 1.18275,1.44341 3.62165,2.67326 5.8904,2.97035 0.92586,0.12114 1.85893,0.20344 2.07347,0.18248 0.21454,-0.0216 1.30315,-1.38718 2.41917,-3.0361 z m -12.76895,-1.00736 c 0.28853,-0.23828 0.43553,-0.76261 0.43895,-1.56591 0.0185,-4.34147 1.54029,-8.16959 4.3445,-10.92937 1.18158,-1.16287 1.51893,-1.63117 1.17498,-1.63117 -0.2654,0 -1.40398,-0.23581 -2.53032,-0.52374 -1.46037,-0.37351 -2.09946,-0.44027 -2.22772,-0.23273 -0.24105,0.38978 -1.97147,8.49338 -2.31801,10.85435 -0.15135,1.03226 -0.27495,2.79391 -0.27465,3.91476 l 0.001,2.03787 0.47868,-0.78295 c 0.26325,-0.43063 0.6739,-0.94414 0.91248,-1.14114 z m -30.50351,-2.10392 c 0.0829,-0.13409 0.31898,-3.74542 0.52476,-8.02527 0.44148,-9.18213 0.83743,-14.31596 1.32289,-17.15198 l 0.35313,-2.06289 -0.89809,-1.04919 c -1.57777,-1.8433 -2.07541,-3.1713 -2.07168,-5.52867 l 0.003,-2.09116 -2.09119,0.33251 c -1.15014,0.18279 -4.39314,0.40639 -7.20662,0.49674 -5.52571,0.17755 -9.86811,-0.11066 -14.57809,-0.96701 -1.51311,-0.27496 -2.89375,-0.50198 -3.06807,-0.50417 -0.21701,-0.003 -0.14673,0.38747 0.22225,1.23571 0.69054,1.58792 0.93205,4.97576 0.49052,6.88049 -0.39429,1.70105 -2.15682,5.12684 -3.36282,6.5363 -0.48358,0.56515 -0.81427,1.0925 -0.7349,1.17188 0.0792,0.0795 1.82561,0.13809 3.88052,0.131 7.85382,-0.0277 16.42482,-2.25176 18.26266,-4.73754 0.31808,-0.43026 0.80398,-0.78228 1.07977,-0.78228 0.43324,0 0.48019,0.13317 0.34514,0.97869 -0.36284,2.27217 -0.65462,6.996 -0.66868,10.82593 -0.0154,4.13717 0.40707,10.32574 0.7705,11.2925 0.20283,0.53916 2.76583,1.93744 5.07862,2.77054 1.48404,0.5346 2.12704,0.60257 2.34615,0.24814 z m -31.90931,-21.93252 c 1.46834,-1.67851 2.68328,-3.69702 3.3925,-5.63628 0.68012,-1.85967 0.76593,-5.21477 0.16953,-6.62887 l -0.38164,-0.90489 -0.46435,1.29637 c -0.25523,0.71304 -0.58068,1.88362 -0.72284,2.60131 -0.62754,3.16782 -1.30954,5.47075 -1.93738,6.5421 -0.64865,1.10683 -2.80652,3.24482 -3.27499,3.24482 -0.1233,0 -0.2241,0.11004 -0.2241,0.24444 0,0.1344 0.38167,0.29191 0.84818,0.34971 0.4665,0.058 0.9859,0.12422 1.15421,0.14703 0.1683,0.0216 0.81673,-0.54212 1.44103,-1.25574 z m -3.62187,-0.58438 c 1.67231,-1.0704 2.93836,-2.78556 3.5731,-4.84066 0.66564,-2.15503 0.67125,-2.66355 0.0277,-2.49521 -0.91053,0.23827 -0.86309,-0.44977 0.10481,-1.52124 1.24866,-1.38213 1.69253,-2.49053 1.69253,-4.22659 0,-2.7007 -0.0851,-2.84622 -3.82229,-6.55132 -4.0011,-3.96655 -3.88172,-3.65047 -2.95768,-7.83061 0.81014,-3.66471 0.62427,-4.74401 -0.94521,-5.48881 -1.15258,-0.54692 -2.03217,-0.29561 -3.25878,0.93098 -3.05565,3.05564 -2.5331,10.67917 0.80557,11.7524 1.70712,0.54875 4.43898,2.12131 5.20929,2.99868 1.30291,1.48391 1.30541,3.60525 0.006,5.3275 -0.47492,0.62963 -0.47224,0.63823 0.54637,1.74328 1.26065,1.36761 1.37757,2.61565 0.38241,4.08208 -0.61027,0.89929 -0.62229,0.99019 -0.24906,1.8834 0.35775,0.85626 0.35106,1.02253 -0.0764,1.89712 -0.98858,2.02221 -5.06629,2.95525 -8.94909,2.04767 -0.93218,-0.21793 -1.73279,-0.35825 -1.77912,-0.31192 -0.14395,0.14396 1.56517,0.64076 4.40448,1.28059 3.00839,0.67794 3.20776,0.65238 5.28518,-0.67734 z m -1.20377,-1.80073 c 1.98278,-0.95425 1.82055,-2.27547 -0.4011,-3.26649 -4.04879,-1.80606 -9.98672,-1.73902 -10.98378,0.12392 -0.44727,0.83575 -0.0185,1.59768 1.26345,2.24753 1.23996,0.62834 3.43738,1.32591 4.84854,1.53912 1.45337,0.21979 4.16683,-0.11189 5.27289,-0.64421 z m 1.4332,-4.84818 c 1.09481,-1.04891 0.96106,-1.79737 -0.57963,-3.24386 -1.95033,-1.83106 -4.72549,-2.93462 -7.43137,-2.95512 -4.84272,-0.0367 -7.3322,2.32534 -4.91993,4.66809 l 0.95221,0.92478 2.53301,-0.16584 c 2.75479,-0.18063 5.37824,0.17509 7.17638,0.97324 1.38361,0.614 1.42201,0.61061 2.26933,-0.20129 z m 50.00959,-3.10774 c 0.74741,-0.37245 1.76121,-1.16811 2.2529,-1.76814 0.89854,-1.09654 2.57967,-4.34083 2.36208,-4.55839 -0.0641,-0.0641 -0.63845,0.31105 -1.27631,0.83372 -0.63782,0.5227 -1.29538,0.95033 -1.46116,0.95033 -0.78992,0 0.12392,-1.02724 2.86863,-3.22416 1.76165,-1.41015 3.32472,-2.89832 3.78428,-3.60294 0.5916,-0.90706 1.03813,-1.27748 1.82691,-1.51554 1.41178,-0.42603 3.14969,-1.45626 3.64174,-2.15876 0.58414,-0.83397 0.49573,-2.38215 -0.2167,-3.79619 -0.34117,-0.67703 -0.70302,-1.61356 -0.80413,-2.08114 -0.27742,-1.28309 -2.08616,-3.81394 -3.29968,-4.61699 -0.73258,-0.48481 -0.99081,-0.7971 -0.80925,-0.97869 0.18156,-0.18156 0.62812,-0.0185 1.39936,0.51462 1.47393,1.01664 1.82749,1.43953 2.77717,3.32139 0.594,1.17708 0.83379,1.45589 0.96566,1.12292 0.31272,-0.78949 -1.39079,-3.51182 -3.30869,-5.28749 -1.81451,-1.67996 -2.03216,-1.97357 -1.4546,-1.9621 1.12684,0.0216 4.43873,3.61021 5.01109,5.42861 0.10511,0.3338 0.25739,0.54051 0.33852,0.45938 0.0811,-0.0811 -0.0709,-0.64782 -0.3376,-1.25932 -0.84593,-1.93889 -2.19889,-3.87895 -3.70898,-5.31838 l -1.46359,-1.3951 0.83991,-1.16956 c 0.88856,-1.23729 1.60429,-2.7453 1.60429,-3.3802 0,-1.26657 -1.89765,-1.5164 -5.81556,-0.76566 l -2.29226,0.43925 -2.01749,-2.17208 -2.01746,-2.17204 -1.2166,0.85751 c -1.70514,1.2019 -3.20906,1.31666 -5.42975,0.41432 l -1.68791,-0.68585 -0.78807,0.88113 c -0.95733,1.07033 -2.937,2.65328 -4.71791,3.77238 -1.7843,1.12123 -2.31082,1.73175 -3.20434,3.71561 -2.69385,5.98114 -3.53414,12.2501 -2.27155,16.9468 1.11053,4.13104 4.19854,8.24542 8.10079,10.79326 1.27297,0.83113 3.8266,1.44784 7.00903,1.69272 1.31253,0.1011 2.3864,0.30116 2.3864,0.44458 0,0.36226 -2.96856,0.46867 -4.62941,0.16584 -0.75527,-0.13778 -1.4135,-0.21053 -1.46273,-0.16214 -0.15443,0.15197 1.59377,0.97916 3.09081,1.46228 2.11287,0.68181 3.80728,0.6238 5.43225,-0.18588 z m -10.61087,-8.72342 c -1.53123,-0.35063 -1.48391,-0.69051 0.11899,-0.85594 2.14091,-0.22102 3.30335,0.54375 1.40571,0.92474 -0.35887,0.0721 -1.04503,0.041 -1.52485,-0.0687 z m -1.30784,-2.60393 c -1.12711,-0.26633 -2.84353,-1.01356 -3.75719,-1.63554 -0.68872,-0.46888 -0.718,-0.46944 -0.72534,-0.0154 -0.006,0.37672 -0.16738,0.2987 -0.78295,-0.37782 -0.92318,-1.01488 -1.00329,-2.04976 -0.23427,-3.02725 0.6419,-0.81606 1.02499,-0.8819 1.02499,-0.17601 0,0.80666 2.85279,1.57676 5.83439,1.57494 2.71028,-0.002 3.73783,-0.22657 6.24726,-1.3678 1.68834,-0.76775 1.76506,-0.84136 1.61041,-1.54534 -0.20992,-0.95548 0.13347,-0.94843 1.55845,0.032 1.66196,1.14345 2.33169,2.95849 1.80998,4.90524 -0.21454,0.80052 -0.51515,0.73711 -0.83339,-0.17571 l -0.26601,-0.76297 -2.01204,1.01081 c -3.16023,1.5876 -6.81225,2.18884 -9.47419,1.55977 z m 5.57303,-0.87747 c 1.56017,-0.41675 3.32043,-1.28802 4.49381,-2.22426 1.50142,-1.19795 0.86809,-2.00865 -0.87999,-1.12647 -1.97801,0.99827 -4.48019,1.46277 -7.92007,1.47026 -2.83527,0.006 -3.42985,-0.0697 -4.54233,-0.5784 -1.50166,-0.68687 -1.79324,-0.57572 -0.92206,0.35162 1.97418,2.10143 6.29987,3.03438 9.77064,2.10725 z m -4.76538,-6.75704 c -0.69739,-0.74442 -1.36407,-2.01749 -1.36616,-2.60877 -7.7e-4,-0.25061 0.76785,-1.29406 1.70825,-2.31884 0.94041,-1.02474 1.99518,-2.42623 2.3439,-3.11442 0.72121,-1.42322 1.16595,-1.82499 1.16595,-1.05326 0,0.49866 -1.58767,3.7517 -2.82763,5.79376 l -0.57048,0.93948 0.79516,1.00055 c 0.43732,0.55032 0.73212,1.16478 0.65509,1.36548 -0.0771,0.20067 -0.13994,0.41404 -0.13994,0.47409 0,0.36546 -1.30519,0.0123 -1.76405,-0.47807 z m 20.34512,-1.57835 c -0.91762,-0.94676 -1.02338,-1.22724 -0.46274,-1.22724 0.49203,0 2.02233,1.54316 1.83344,1.84882 -0.24414,0.39496 -0.49625,0.28051 -1.3707,-0.62158 z m 2.17014,-0.69597 c -0.0894,-0.28205 -0.68462,-0.97206 -1.32251,-1.53357 -1.75998,-1.5492 -1.40738,-2.22081 0.39764,-0.75746 0.83042,0.67322 1.83538,2.03857 1.83538,2.49361 0,0.51265 -0.73545,0.349 -0.91051,-0.20252 z m -10.46713,-3.43032 c -0.67522,-0.7472 -2.80429,-1.79867 -3.64205,-1.79867 -0.94473,0 -0.69165,-0.5751 0.42415,-0.96395 2.32367,-0.8098 3.84683,-0.0336 4.08529,2.08176 0.15258,1.35337 -0.0885,1.54266 -0.86739,0.68086 z m -16.23302,-0.15166 c -0.47596,-0.9274 -0.58644,-1.94262 -0.31928,-2.93475 0.52535,-1.95094 1.82659,-1.50983 2.00944,0.68117 0.11529,1.37948 -0.3186,2.50863 -1.01509,2.64275 -0.23797,0.0459 -0.54169,-0.12916 -0.67507,-0.38917 z m 16.18263,-7.03748 c -0.61555,-0.62371 -1.34958,-1.13402 -1.63117,-1.13402 -0.61791,0 -0.65663,-0.34003 -0.10203,-0.89479 0.48648,-0.48651 0.51869,-0.49008 1.18679,-0.13254 0.45233,0.24197 2.31785,2.8443 2.31785,3.23316 0,0.40655 -0.77583,-0.0629 -1.7716,-1.07181 z m -16.64747,-0.12176 c -0.2056,-0.33254 1.05659,-1.45451 1.89697,-1.68634 0.72047,-0.19882 1.12403,0.0425 1.12403,0.67217 0,0.37239 -0.18341,0.48389 -0.76877,0.46724 -0.42283,-0.0123 -1.06263,0.17077 -1.4218,0.40603 -0.45162,0.29592 -0.70777,0.33935 -0.83043,0.14087 z m -34.78004,28.73025 c 0.52988,-0.98797 0.62461,-2.36458 0.21547,-3.12929 -0.41928,-0.78341 -2.38822,-2.00914 -4.60833,-2.86884 -1.72037,-0.66616 -2.26948,-0.76625 -3.47828,-0.63389 -3.71058,0.40627 -5.74167,1.53262 -5.74167,3.18409 0,0.87734 1.0994,3.20025 1.51166,3.19396 0.10172,-0.002 0.76125,-0.17786 1.46591,-0.39148 2.49626,-0.75727 5.8408,-0.36629 8.45913,0.98887 0.67158,0.34758 1.3279,0.61397 1.45851,0.59199 0.1307,-0.0216 0.45356,-0.44289 0.7177,-0.93541 z m 67.21286,-24.35758 c 0.22872,-0.8803 0.41487,-2.59879 0.41345,-3.8189 -0.006,-4.01535 -1.18247,-6.54685 -4.11981,-8.8552 -1.54119,-1.21117 -3.95493,-3.83564 -4.54961,-4.94679 -0.18957,-0.35454 -0.67244,-0.51551 -1.87224,-0.62429 -1.08627,-0.0983 -1.83895,-0.32631 -2.29436,-0.6944 -3.81144,-3.0807 -4.29718,-3.09645 -7.048,-0.22872 l -1.78525,1.86112 -1.0778,-0.43124 c -1.33552,-0.53435 -2.28946,-0.26386 -4.60194,1.30448 -3.83567,2.60153 -5.12776,3.26994 -6.00359,3.10561 -0.92737,-0.17385 -1.53086,-0.73394 -1.82372,-1.6922 -0.18865,-0.61763 -0.20684,-0.60888 -0.81249,0.39148 -0.69892,1.15467 -0.81975,2.91277 -0.3158,4.59486 0.35159,1.17341 1.64362,2.56155 2.38422,2.56155 0.8676,0 3.55032,-1.82175 5.62524,-3.81989 1.09626,-1.05566 2.08515,-1.9199 2.19757,-1.92058 0.11251,-6.4e-4 0.77802,0.28945 1.4791,0.64474 2.46794,1.2506 3.97315,1.11568 5.4738,-0.49064 0.34798,-0.37249 0.86146,-0.67726 1.14108,-0.67726 0.2842,0 1.47139,0.94001 2.69095,2.13038 l 2.18259,2.13037 1.89601,-0.33988 c 2.71605,-0.48685 5.11182,-0.40322 5.93275,0.20715 1.19422,0.88788 0.92524,3.09716 -0.67836,5.5712 -0.44456,0.68585 -0.43966,0.70441 0.36555,1.38191 1.05779,0.89007 2.45721,2.80612 3.35492,4.59338 l 0.7128,1.41918 0.35843,-0.87839 c 0.19728,-0.48315 0.54566,-1.59867 0.77451,-2.47894 z m -34.2681,-6.34393 c 0.0154,-0.0247 -0.43624,-0.36077 -1.00372,-0.74587 l -1.03178,-0.70018 -0.46887,0.57904 c -0.65753,0.81199 -0.58404,1.79651 0.22286,2.98376 l 0.69162,1.01784 0.78095,-1.54445 c 0.42954,-0.84944 0.79359,-1.56501 0.80903,-1.59014 z"
         id="path874" />
    </g>
  </g>
</svg>
